/* XPM */
static char *result[] = {
/* columns rows colors chars-per-pixel */
"64 64 123 2 ",
"   c #170B01",
".  c #1A0C01",
"X  c #1E1003",
"o  c #200F02",
"O  c #231102",
"+  c #2B1403",
"@  c #2D1A06",
"#  c #331603",
"$  c #381704",
"%  c #351A04",
"&  c #3B1B04",
"*  c #351D09",
"=  c #3D2106",
"-  c #39210B",
";  c #421E04",
":  c #442206",
">  c #4B2405",
",  c #462807",
"<  c #4F2B07",
"1  c #452509",
"2  c #4B250A",
"3  c #462909",
"4  c #4B2B09",
"5  c #542705",
"6  c #542B06",
"7  c #5B2C05",
"8  c #502709",
"9  c #532D09",
"0  c #5A2E0A",
"q  c #5C3106",
"w  c #56310A",
"e  c #5D320B",
"r  c #572E12",
"t  c #5C3211",
"y  c #622F03",
"u  c #653105",
"i  c #6D3605",
"p  c #63340C",
"a  c #6B350A",
"s  c #67390D",
"d  c #6B3A0C",
"f  c #723704",
"g  c #783705",
"h  c #753805",
"j  c #7B3B05",
"k  c #733D0D",
"l  c #7C3D09",
"z  c #633512",
"x  c #683710",
"c  c #663911",
"v  c #6D3B12",
"b  c #6D3E18",
"n  c #733E11",
"m  c #783E13",
"M  c #77400F",
"N  c #7C410C",
"B  c #744113",
"V  c #7C4312",
"C  c #7E4816",
"Z  c #74441C",
"A  c #7B4519",
"S  c #7D4A22",
"D  c #813F06",
"F  c #813E0A",
"G  c #814007",
"H  c #84430B",
"J  c #89460C",
"K  c #8C490E",
"L  c #974C09",
"P  c #9B4D0A",
"I  c #844513",
"U  c #8A4612",
"Y  c #844914",
"T  c #8D4A14",
"R  c #854D1A",
"E  c #8E4B19",
"W  c #914E14",
"Q  c #914C19",
"!  c #8F5016",
"~  c #8B511D",
"^  c #955216",
"/  c #985417",
"(  c #95531C",
")  c #9A561A",
"_  c #9F5A1C",
"`  c #A15C1E",
"'  c #A9611F",
"]  c #8C5424",
"[  c #88552F",
"{  c #945522",
"}  c #9A5522",
"|  c #955924",
" . c #9D5A23",
".. c #9D5C28",
"X. c #A25E23",
"o. c #A25D2A",
"O. c #9F6335",
"+. c #A46125",
"@. c #AB6323",
"#. c #A6632B",
"$. c #A9652B",
"%. c #AD692D",
"&. c #B26B2D",
"*. c #A76736",
"=. c #AA6532",
"-. c #AE6A33",
";. c #A46638",
":. c #AF6A38",
">. c #B16D32",
",. c #B26D39",
"<. c #B47034",
"1. c #B5723B",
"2. c #B9763E",
"3. c #B9783F",
"4. c #AE7142",
"5. c #B77541",
"6. c #BB7945",
"7. c #BD7C49",
"8. c #C07D46",
"9. c #C17F4D",
"0. c #C2814E",
"q. c #C58452",
"w. c #C88655",
/* pixels */
"& & & ; $ + .     . O $ $ & % & ; ; & ; & & & & & < 7 6 7 5 9 6 6 4 < 4 4 < w 4 , , 4 4 4 1 1 = = 1 = : & 1 : : > ; ; ; & $ $ ; ",
"%.$.+.H f &       ; A ) _ ) | =.,.6.9.6.7.6.9.w.q.q.8.6.5.1.,.1.>.$.$.$.$._  .( E ( ( ) ^ / ^ ) $.$.+.$.$.#.@.+.+.$.@.#.>.>.>.%.",
"X.` J D j y     > j ( o.) ( T / } o.=.o.,.,.,.=.1.1.$.#.( o.} ) (  . . . .( ) ^ ( _ X.o.+.X.X.#.#.^ H H F H H D H U W U ^ / @.%.",
"U U D D H F o o g D o.Q H H U U E Q Q Q Q E E Q E Q E E Q Q Q Q ! E E E E E E E Q T T U T Y U U I T U T U H H H H J P P P P P L ",
"Q Q U U U F 5 # 5 7 a a a a a n z a m F R F F U E U Q Q Q Q Q Q Q Q Q Q ^ Q Q Q Q Q Q Q Q Q Q Q Q Q Q Q Q Q W E Q U W Q Q Q W Q ",
"Q Q Q Q H j & . . + + & 1 r r t t m z a t z t 0 8 1 ; U Q Q Q Q Q Q Q Q E Q Q Q Q Q Q Q Q Q Q Q Q Q Q Q Q Q Q Q Q Q Q Q Q Q Q Q ",
"Q Q Q ) U l ; . # r O.9.w.w.9.,.,.:.:.,.:.:.-.$.o.o.X.Q Q Q Q Q Q Q Q Q Q Q Q Q Q Q Q Q Q Q Q Q Q Q Q Q Q Q Q Q Q Q Q Q Q Q Q Q ",
"Q Q Q o.( D 7 # v o.:.,.,.,.o.o.} } ( Q } Q Q Q ( Q Q Q Q Q Q Q Q Q Q Q Q Q Q Q Q Q Q Q Q Q Q Q Q Q Q Q Q Q Q Q Q Q Q Q Q Q Q Q ",
"Q Q Q o.Q F h 4 f } ,.U U U Q U E U U U U U U U U E Q Q Q Q Q Q Q Q Q Q Q Q Q Q Q Q Q Q Q Q Q Q Q Q Q Q Q Q Q Q Q Q Q Q Q Q Q Q ",
"Q Q Q o.Q H j 9 g } =.U Q Q Q Q Q Q Q Q Q Q Q Q Q Q Q Q Q Q Q Q Q Q Q Q Q Q Q Q Q Q Q Q Q Q Q Q Q Q Q Q Q Q Q Q Q Q Q Q Q Q Q Q ",
"Q Q Q } Q I h w j } =.Q Q Q Q Q Q Q Q Q Q Q Q Q Q Q Q Q Q Q Q Q Q Q Q Q Q Q Q Q Q Q Q Q Q Q Q Q Q Q Q Q Q Q Q Q Q Q Q Q Q Q Q Q ",
"Q Q Q  .} H h : j Q =.} Q Q Q Q Q Q Q E Q Q Q Q E Q Q Q Q Q Q Q Q Q Q Q Q Q Q Q Q Q Q Q Q Q Q Q Q Q Q Q Q Q Q Q Q Q Q Q Q Q Q Q ",
"Q Q Q o.} F j + = 1 b c m I B m n m k n k m s p p s p p p p p p d s s d n s s m U T U Q Q Q Q Q Q Q Q Q Q Q Q Q Q Q Q Q Q Q Q Q ",
"Q Q Q =.o.I f   O = 9 9 p d n k V I o.9.w.w.w.9.,.,.=.-.,.=.:.-.-.,.,.=.:.Q m V U T Q Q Q Q Q Q Q Q Q Q Q Q Q Q Q Q Q Q Q Q Q Q ",
"Q Q Q ....H u . < I Q =.-.,.=.,.,.,.,.5.6.=...} Q } Q } } } Q Q ( { ( } ( Q Q Q Q Q Q Q Q Q Q Q Q Q Q Q Q Q Q Q Q Q Q Q Q Q Q Q ",
"Q Q Q o.#.H i = E ..o.}  .Q E Q E Q Q E Q E Q Q Q Q Q Q Q Q Q Q E Q Q Q Q Q Q Q Q Q Q Q Q Q Q Q Q Q Q Q Q Q Q Q Q Q Q Q Q Q Q Q ",
"Q Q Q =.o.I g > j I =.} Q Q Q Q Q Q Q Q Q Q Q Q Q Q Q Q Q Q Q Q Q Q Q Q Q Q Q Q Q Q Q Q Q Q Q Q Q Q Q Q Q Q Q Q Q Q Q Q Q Q Q Q ",
"Q Q Q o.o.U j 6 j U =...Q Q Q Q Q Q Q Q Q Q Q Q Q Q Q Q Q Q Q Q Q Q Q Q Q Q Q Q Q Q Q Q Q Q Q E Q Q Q Q Q Q Q Q Q Q Q Q Q Q Q Q ",
"Q Q Q o.o.U j 7 j T ,.} Q Q Q Q Q Q Q Q Q Q Q Q Q Q Q Q Q Q Q Q Q Q Q Q Q Q Q Q E Q E Q E Q E I I E Q Q Q E Q Q E U E E Q Q Q Q ",
"Q Q Q o.} H j 6 j Q ,.o.Q Q Q Q Q Q Q Q Q Q Q Q Q Q Q Q Q Q Q Q Q Q Q Q Q Q Q Q E E T U I I v w 1 O + & 4 9 d I H H U E Q Q Q Q ",
"Q Q Q o.Q H j 9 h { ,.=.Q Q Q Q Q Q Q Q Q Q Q Q Q Q Q Q Q Q Q Q Q Q Q Q Q Q Q Q I d e e w 9 1 = . .   o : 9 w t p p k n E Q Q Q ",
"Q Q Q o.} D g 0 l Q ,.#.Q Q Q Q Q Q Q E Q Q Q Q Q Q Q Q Q Q U U E Q Q Q Q Q Q Q { =.:.-.=.=.:.:.7.5.6.9.*.*.=.=.=.=.=.=.} Q Q Q ",
"Q Q Q =.} D j ; f N o.} U U E U U E U E T T E U U U U U U U J U U U E Q Q Q Q Q Q Q E Q Q Q ( } ,.q.q.q.5.=.E Q Q Q Q Q Q Q Q Q ",
"Q Q Q $.Q j j . + * 4 2 < p a n p e e z e l n n b c n d p I T U T U U Q Q Q Q Q Q Q Q Q Q Q Q Q Q Q { Q Q Q Q Q Q Q Q Q Q Q Q Q ",
"Q Q Q =.Q D g o + + & 9 [ 9.q.q.q.9.6.5.=.-.,.,.,.4.,.=.} E E E Q Q E Q Q Q Q Q Q Q Q Q Q Q Q Q Q Q Q Q Q Q Q Q Q Q Q Q Q Q Q Q ",
"Q Q Q #.U D g # e  .o.o.} } } ( ( { Q Q Q Q Q Q Q Q Q Q E Q E Q Q Q Q Q Q Q Q Q Q Q Q Q Q Q Q Q Q Q Q Q Q Q Q Q Q Q Q Q Q Q Q Q ",
"Q Q E o.H j j > ] =.Q q.) E Q Q Q Q Q Q Q Q Q Q Q Q Q Q Q Q Q Q Q Q Q Q Q Q Q Q Q Q Q Q Q Q Q Q Q Q Q Q Q Q Q Q Q Q Q Q Q Q Q Q ",
"Q Q U } D j j & x H { 7.,.U E Q Q Q Q Q Q Q E W Q Q Q Q Q Q E Q Q Q Q Q Q Q Q Q Q E T U U U Q Q Q Q Q Q Q Q E Q Q Q Q Q Q Q Q Q ",
"Q U N E k j j + 7 F { q.9...U E Q Q Q Q E E E E E U T T I T J U I I U H F U U J H H F l l l U I H H U U U U U E U T E W E E E U ",
"X.X.T T U j g   & g F #.9.9.( ^ ( } ( W W T ^ ^ } } } ( ) ) ( E ( ) ) I W Q T Q U ^ )  .T ) ^ E W E J  . . .} }  .) _  .X. .X.#.",
"J J G N l 7 O     o 5 l I j j j l l l l l j j j g j l l h j j h f i i i f j F 7 7 5 5 u 7 i i j h l j j l j l l j l I N N F F F ",
"a p u 0 & O O O . . + + & % 9 9 9 9 7 w w 6 q q u 0 p p t 9 t 0 9 9 5 H j > + +       . O + + & & & & ; & & & ; 1 4 w c p p e e ",
"%.%.>.%.%.%...~ ) | #.| ! ) +.%.$.$.$.@.+.%.&.<.0.7.0.w.q.7.8.8.,.$.%.$.$.| ] | # . O + % ;.9.>.%.#.+.#.+.+.+.%.>.@.<.<.<.>.>.>.",
">.%.>.%.%.%.<.%.%.%.>.<.>.<.<.<.>.%.+.+.X.+.X.` +.X.X.$.+._  .^ ^ K J J J J )  .5 . + & q.w.-.! H H H H J G K Y ! ! ) '  ._  .! ",
"! %.%.%.#.X.) ! ) ) / ) ) _ _ ) _ _ _ _ _ _ ) ) _ _ / T 9 q s W W B M I H u , : % # # 4.q.^ H H J N H J L ! ! ! K ! K K K ! _ _ ",
"! / ) ) ) _ _ _ ) _ _ _ _ _ _ _ _ _ _ _ _ _ ` _ ` / ) / B d ^ M d e 0 p 0 & & & > 5 % ;.2.H K T K K ^ _ ) _ _ _ _ _ _ _ ) ) _ _ ",
"` _ _ _ _ _ _ _ _ _ _ _ _ _ _ _ _ _ _ _ ` ) ` _ _ _ _ _ _ X.` $.q.0.6.-.-.>.-.%.-.) + k <.K K K L / _ _ ` _ _ _ _ _ _ _ _ _ _ _ ",
"_ _ _ _ _ _ _ _ _ _ _ _ _ _ ' ) _ _ _ _ _ _ ` _ _ _ _ _ _ ` ` ` ` ` `  .@.$.' <.^ h X v <.H ^ ^ / _ _ _ _ _ _ ` _ ` _ _ _ ` _ _ ",
"_ _ _ _ _ ` _ _ _ _ _ _ _ _ _ _ _ _ ` _ _ _ _ _ _ _ _ _ _ _ _ _ _ _ _ _ _ _ _ <.^ i . s >.H ^ / ` _ _ _ _ _ _ _ _ _ _ _ _ _ _ ` ",
"_ ` _ _ _ _ _ ` _ _ _ _ _ _ _ _ _ _ _ _ _ _ ` _ _ _ _ _ _ _ _ _ ) ` _ _ _ _ ^ %.0 +   B >.K ) _ _ _ _ _ _ _ _ _ ` _ ` _ _ _ _ _ ",
"_ _ _ _ _ _ _ _ _ _ _ / _ ) ) _ _ _ ) _ _ _ _ _ _ _ _ _ ) _ ) ) ) Y E e 9 9 # +       R >.K _ _ _ _ _ _ _ _ _ _ _ _ _ _ _ _ _ _ ",
"_ _ ` ` _ _ _ ` C ! Y Y C N B B V d B B B R R R C C C C B d a p w > $ : ; 2 $ & 8 7 o m +.! _ _ _ _ _ _ _ _ _ _ _ _ _ _ _ _ _ ` ",
"' ' ' ` _ ` _ ` ~  .~ (  .| | #.$.=.=.,.5.q.0.0.7.9.0.0.q.w.7.1.1.$.$.-.$.$.%.&.=.) 2 m ` K ^ _ _ _ _ _ _ _ ) _ / ) ) ) / / / / ",
"' ' ' ' ` ` ` ` ` _ _ ) _ _ _ ` _ _ _ _ _ +._ _ _ ' _ +.$.#.#.X.X.+.X.$.@.$.$.$.K 7 ; B $.^ / _ _ _ _ / / / / ^ L ^ ^ K / W W ^ ",
"@ = p Y Y _ _ / _ ) ) ) _ / / ^ / / / ^ ^ / ^ / / / / ) _ _ _ _ ` ` _ _ _ _ ` %./ q & T >._ _ _ _ / ^ K ^ ! K ! K ! Y s 4 4 - @ ",
"X X , , , < q e d d M V M p ^ ^ ^ / / ^ / ^ ^ ^ ^ / ) _ _ ` _ _ _ _ _ _ _ _ _ >._ a + R >._ _ _ ) / p 6 q e M M < 4 3 4 , @ X   ",
"- * p < M K W W K ^ ^ ^ ! W ^ ^ ^ _ / _ ) ^ ^ ^ / _ _ _ _ _ _ _ _ _ ` _ _ _ _ %.$.M % C -._ _ _ _ ) ^ ^ ^ / / / ^ ^ ^ ^ ! B = - ",
"q.9.>.$.` _ ) ) / / / / ) / / / / _ _ _ _ ) ^ / / _ _ _ _ _ _ _ _ _ _ _ _ _ _ &.%.H # C <._ _ _ _ _ _ _ _ _ _ _ _ ` @.&.&.8.w.w.",
"X._ _ _ ` ` ) ` / ` ` ` ` ` ` / _ _ _ _ _ _ _ _ _ _ _ _ _ _ _ _ _ ` _ _ _ _ ` 2.>.H & k >._ _ _ _ _ _ _ _ _ _ ` / ` ` ` ` ` ` ' ",
"_ _ _ _ ) ` ` ` ` ` / ` / ` ` ` _ _ _ _ _ _ _ _ _ _ _ _ _ _ ` _ _ _ _ _ _ _ $.q.3.J & e <._ _ ` _ _ _ _ _ ` _ _ ` ` / ` / ` _ _ ",
"_ _ ` _ ) ` _ _ / ` ` ` _ _ ` P _ _ _ _ _ _ _ _ _ _ _ _ _ _ _ _ _ _ ` _ _ _ +.q.6.N % a 1._ _ _ _ _ _ _ _ _ _ _ / ` / ` _ _ _ _ ",
"_ _ _ _ ` _ _ _ ` ` / ` _ _ ` ` _ _ _ _ _ _ _ ' _ _ _ _ _ _ _ _ _ _ _ _ _ _ _ 9.2.q X s 0.) _ _ _ _ ` _ _ _ _ ` ` ` ` ` _ ` _ _ ",
"` _ _ ` _ _ _ _ ` ` ` ` ` _ _ _ _ _ _ _ _ _ _ _ _ _ _ _ _ _ _ _ ` ` ) ) _ / _ _ X.: . Z w._ _ _ _ _ _ _ _ ` _ _ ` ` ` ` _ ` _ _ ",
"_ _ _ _ _ _ ` _ ` / ` / _ _ _ _ _ _ _ _ _ _ _ _ _ _ _ _ ) ) / / ^ ^ ^ W W W ^ K V + O B 0._ ) _ ` _ _ _ _ _ _ _ ` ` / ` _ _ _ _ ",
"_ ` _ _ _ _ _ _ / ` ` ` ` ` ` ) ' _ _ _ _ _ _ _ _ _ / ^ L ! ! ^ W W ^ L U p 7 0 + . . S w.) ) _ _ _ _ _ _ _ _ _ / ` ` / ` ` _ _ ",
"_ _ _ _ _ ` _ _ ` ` ` ` / ) ` ` _ _ _ _ _ _ _ / ) / / ^ ! N p q 9 2 & & $ $ # #     + Z 0.K ) _ _ _ _ ` _ _ ` _ ` ` ` ` / ` / ` ",
"_ _ _ _ _ _ _ _ ` P _ _ _ _ _ _ _ _ _ _ _ _ _ / _ _ _ +.B t > 1 8 z [ r 3 < & 1 4 4 & 5 6.H W _ _ _ _ _ _ _ _ _ / ` ` / ` _ _ _ ",
"` _ _ ` _ _ _ _ ` ` _ _ ` _ _ _ _ _ _ _ _ _ _ _ ) _ _ _ _ ) _ ' X.%.q.q.6.9.6.,.%.+.w u %.J J ) _ _ _ _ _ _ _ _ ` ` ` ` ` _ _ _ ",
"_ _ _ _ _ _ _ _ _ _ _ _ _ _ ` _ ) _ _ _ _ _ _ _ _ _ _ _ _ _ _ _ ` _ ) / ^ W W W &.K < i >.K H K / _ _ _ _ _ _ ' / ` / / _ _ _ _ ",
"_ _ _ _ _ _ _ _ _ _ ` _ _ _ _ _ ' _ _ _ _ ' _ _ _ _ _ _ _ _ _ _ _ W p e e p w 9 #.Y w s <._ H K ^ / / _ _ _ _ _ ` ` ` ` ` _ _ _ ",
"_ _ _ _ _ _ _ _ _ _ _ ` ` _ _ _ _ _ _ ) _ ` ) _ _ _ _ ) _ _ / / / W K K H H h d ! C w u <.) K K ^ L K ^ ) _ _ _ ' _ _ _ _ ) _ _ ",
"K ! ! ^ ! / / / L / W K L ^ K J W W K K / K K H K H J K H H G G G G N j l j N j N h , < H H G j N G N H H H H H H H J K L L W / ",
"M M M N N N H N N G j j N j j N H H G N G N j j j N N G N H j j j N j j j j j j e < 3 3 , e N j j h j N N j j j j N j j j N N j ",
"i h k d d M i d d i s s u p p s s h d p q q 4 4 4 , 4 4 4 , 4 , , , , , 4 , , , 3 3 3 , , 4 , , , , , , < w q s d i d d i d d i "
};
