/* XPM */
static char *result[] = {
/* columns rows colors chars-per-pixel */
"64 64 216 2 ",
"   c #040403",
".  c #0D0702",
"X  c #150C02",
"o  c #1A0F02",
"O  c #1A0D0C",
"+  c #1E1203",
"@  c #1C1515",
"#  c #231404",
"$  c #2A1504",
"%  c #2E1905",
"&  c #2D1A09",
"*  c #351603",
"=  c #331C06",
"-  c #3A1D05",
";  c #35150C",
":  c #351D0A",
">  c #2B1D19",
",  c #341816",
"<  c #311D1C",
"1  c #3D2107",
"2  c #3A2E06",
"3  c #3B2209",
"4  c #263800",
"5  c #2B2514",
"6  c #262B18",
"7  c #38241B",
"8  c #2A182B",
"9  c #281D2A",
"0  c #391727",
"q  c #300D35",
"w  c #360F3B",
"e  c #311034",
"r  c #292726",
"t  c #362523",
"y  c #333B21",
"u  c #37392B",
"i  c #272737",
"p  c #25253B",
"a  c #352434",
"s  c #362739",
"d  c #3A233B",
"f  c #27373C",
"g  c #460F0B",
"h  c #46170B",
"j  c #57130E",
"k  c #5F150F",
"l  c #441E19",
"z  c #491C18",
"x  c #452507",
"c  c #432509",
"v  c #452909",
"b  c #4C290A",
"n  c #532D09",
"m  c #582F0A",
"M  c #4B340A",
"N  c #54310D",
"B  c #5B310B",
"V  c #472617",
"C  c #54201C",
"Z  c #40331D",
"A  c #4A3419",
"S  c #583514",
"D  c #63360C",
"F  c #67380D",
"G  c #6C3A0D",
"H  c #723D0E",
"J  c #613716",
"K  c #653A11",
"L  c #6B3D13",
"P  c #733F10",
"I  c #421739",
"U  c #482D2A",
"Y  c #533528",
"T  c #463939",
"R  c #6C3A31",
"E  c #344C00",
"W  c #3C421E",
"Q  c #5A4C13",
"!  c #75500E",
"~  c #7A530F",
"^  c #6F4112",
"/  c #754113",
"(  c #7C4412",
")  c #7A4719",
"_  c #687D12",
"`  c #574627",
"'  c #584628",
"]  c #515B29",
"[  c #4A5034",
"{  c #654623",
"}  c #6F4F30",
"|  c #7A5835",
" . c #715E3B",
".. c #3D1444",
"X. c #292746",
"o. c #243A42",
"O. c #2F3C41",
"+. c #33344A",
"@. c #3C394F",
"#. c #282753",
"$. c #25255B",
"%. c #2A3055",
"&. c #32325A",
"*. c #2C2C6B",
"=. c #34336A",
"-. c #303076",
";. c #32327B",
":. c #411247",
">. c #411248",
",. c #541F54",
"<. c #493B43",
"1. c #483F41",
"2. c #4F2A51",
"3. c #5E3C5A",
"4. c #622A65",
"5. c #732A76",
"6. c #2D4B51",
"7. c #2A4C58",
"8. c #344C58",
"9. c #1C5166",
"0. c #195B72",
"q. c #185F78",
"w. c #2B596C",
"e. c #365766",
"r. c #19627C",
"t. c #2B6279",
"y. c #4B4144",
"u. c #575D42",
"i. c #765B50",
"p. c #596244",
"a. c #786D47",
"s. c #813F3C",
"d. c #81580F",
"f. c #804713",
"g. c #844A16",
"h. c #8A4E17",
"j. c #844C19",
"k. c #8A4E19",
"l. c #8E511A",
"z. c #8A5719",
"x. c #93551B",
"c. c #95581E",
"v. c #9B6913",
"b. c #A06C13",
"n. c #845327",
"m. c #845528",
"M. c #965A22",
"N. c #935B27",
"B. c #985D25",
"V. c #864139",
"C. c #89413C",
"Z. c #865D30",
"A. c #97602C",
"S. c #9A612C",
"D. c #8A623A",
"F. c #976737",
"G. c #9A7130",
"H. c #A7672B",
"J. c #A36C37",
"K. c #A2733D",
"L. c #A97639",
"P. c #B47C3C",
"I. c #934943",
"U. c #A64F48",
"Y. c #BA5952",
"T. c #8B6843",
"R. c #926E49",
"E. c #997347",
"W. c #977855",
"Q. c #A87947",
"!. c #A87D52",
"~. c #876D73",
"^. c #8C727A",
"/. c #778E15",
"(. c #73854D",
"). c #8CA719",
"_. c #8EAA19",
"`. c #B08338",
"'. c #9F805E",
"]. c #AA814B",
"[. c #B48346",
"{. c #BA8847",
"}. c #A98257",
"|. c #B48956",
" X c #8F9368",
".X c #A88864",
"XX c #B48E62",
"oX c #B9956A",
"OX c #AD9272",
"+X c #BB9B74",
"@X c #95AC6E",
"#X c #9EB667",
"$X c #A0BA69",
"%X c #BFA079",
"&X c #C28C49",
"*X c #C6924E",
"=X c #D19C42",
"-X c #C69554",
";X c #CA9652",
":X c #CE9A55",
">X c #D29D56",
",X c #D39E58",
"<X c #D8A144",
"1X c #D6A159",
"2X c #E9AD4A",
"3X c #F0B34C",
"4X c #1D7596",
"5X c #35768E",
"6X c #504784",
"7X c #504886",
"8X c #957981",
"9X c #2080A4",
"0X c #3A84A5",
"qX c #B2919A",
"wX c #BE9CA5",
"eX c #C4A984",
/* pixels */
"- h - - J N P H.F.c.c.c.c.c.c.c.c.x.x.x.x.x.x.x.x.x.x.x.x.x.x.x.x.x.x.x.x.x.x.x.c.x.x.c.x.x.x.x.x.x.x.x.x.x.x.c.x.x./ / K - * h ",
"H.H.k.b J E.!.%XoX|.Q.!.J.B.J.J.F.S.J.J.J.B.M.c.M.M.M.B.N.M.B.B.B.B.B.B.S.M.S.S.M.B.B.B.M.B.J.Q.Q.J.|.|.}.|.Q.oX+X].R.) 3 S L.H.",
"H.) b D.!.J.x.x.x.x.x.x.x.x.x.x.x.x.c.c.c.x.x.x.x.x.c.x.x.x.x.x.x.x.c.c.c.c.c.c.x.c.c.x.c.x.x.c.x.x.N.B.B.B.N.Q.Q.|.%X|.F.3 G H.",
"( N | XXx.x.x.x.x.x.x.x.x.x.x.x.x.x.x.x.x.x.x.x.x.x.x.x.x.x.x.x.x.x.x.x.x.x.x.x.x.x.x.x.x.x.x.x.x.x.x.c.x.x.x.x.S.H.M.+XoXm.c h.",
"L ) !.c.x.c.x.x.x.x.x.x.x.x.x.x.x.x.x.x.x.x.x.x.x.x.x.x.x.x.x.x.x.x.x.x.x.x.x.x.c.x.x.x.x.c.x.x.x.x.x.x.x.x.x.x.x.M.Q.Q.eXXXl.j.",
"k.K.B.x.x.x.x.x.x.x.x.x.x.x.x.x.x.z.x.x.x.x.x.z.x.x.x.x.x.x.x.x.x.x.x.x.x.x.x.x.x.x.x.x.x.x.x.x.x.x.x.x.x.x.x.x.x.x.c.].%X+Xl.b ",
"x.!.B.x.x.x.x.x.# X o + o o o o + o X + o o + + o o o o o + o + o + + o + + + + o o o X o o o o o o o + o o o { {.x.x.x.M.A.l.) ",
"M.}.H.M.x.x.x.l.X X # # # # # # # # # # # # # # # # + # # + + + + + + + + + + # # o # # # # # # # # + # # + # F.:Xx.x.x.x.l.) ) ",
"x.XXJ.M.x.x.x.x.o # v v v v v v v v v v v v v v v v v v v v v v v v v v v v v v v v v v v v v v v b v v v v v &X>Xx.x.x.x.f.G P ",
"M.oXS.c.l.l.x.k.o @ q 0 v v v v v v v v v v v v v v v v v v v b v v v v V 2 v v v v v v v v v v R C.R v c V v {.>Xx.x.x.x.f.L L ",
"M.oXS.M.x.x.x.k.o O e e v v h 1 v v v v G.`.`.`.`.`.`.`.`.=X3X3X3X3X3X=X`.`.`.`.L.v v v v v v c V.V.C.v l z l [.>Xx.x.x.x.j.L K ",
"x.+XB.x.x.x.x.x.o O q 9 x g g g g v v v `.`.`.`.`.`.`.2X3X3X3X3X3X3X3X3X<X`.`.L.`.N v v v v v J C.C.U 7 l z l {.>Xx.x.x.x.j.B J ",
"c.eXS.x.x.x.x.x.+ O q 9 g g g g g v v v A ' Y [ ` }  . . . . . . . . . . .' ` ` ` 6 6 v v v v s.C.C.a ,.7 z z {.,Xx.x.x.x.) b b ",
"x.%XS.x.x.l.k.x.+ O q 9 , g g g g h v v v 3 4 4 E E E E E E E E E E E E E E 4 4 4 4 4 2 v v v C.C.R a ,.0 z z {.,Xx.l.l.x./ b S ",
"M.!.S.N.l.x.x.k.+ o q q a k k j g h v v v v 4 E E E E E E E E E E E E E E E E 4 4 4 4 2 v v J Y.Y.R 5.2.7 z , {.,Xl.x.x.l.^ v N ",
"x.eXA.l.l.x.k.x.# o w >.s k k k k j v v v v 4 E E E E E E E E E E E E E E E E 4 4 4 4 2 v v Y.Y.I.<.5.4.t z 7 {.>Xl.x.z.x.K 3 V ",
"x.+XS.x.l.l.l.l.# O :.>.d z k k k C x x x v 4 E E E E E E E E E E E E E E E E 4 4 4 4 c x x Y.Y.3.2.5.4.U l 9 {.,Xx.l.l.x./ b c ",
"l.E.N.l.l.l.l.k.# X ..:...V k k k U * * * * 4 E E E E E E E E E E E E E E E E 4 4 4 4 * * s.Y.Y.Y 5.5.3.U C 7 Q.,Xk.l.l.l.H b b ",
"x.eXN.l.k.k.k.k.# o >.>.>.0 k k k j 7 * * * 6 y y y y y y y y y y y y y y y y 5 6 6 5 * * U.Y.y.= 5.5.2.Y z t [.>Xx.k.l.k.K v v ",
"l.eXA.l.k.k.k.k.$ O 0 >.>.a k k k k 7 * * * 5 y y y y y y y y y y y y y y y y 5 6 6 5 * * I.Y.R * 5.5.2.C l < [.,Xk.x.h.k.S N 3 ",
"l.eXR.k.k.h.h.h.$ X , d ..s k k k k 5 e.t.t.w.t.5X5X5X5X5X5X5X0X0X0X0X0X0X0X5X* * * * * R s.R Y * 5.5.2.z l > Q.,Xh.h.h.h./ = v ",
"k.%XS.l.h.h.h.h.$ X * s ..d U k k g < o.t.t.t.t.5X0X0X0X0X0X0X0X0X0X0X0X0X0Xt.6.* * * * s.I.Y ; = 5.5.2.z l 7 [.,Xh.h.h.h.b o D.",
"k.eXS.k.h.g.g.h.& X * 9 a ..7 j g g 9 r o.o.o.o.O.6.e.e.e.e.e.e.e.8.8.8.8.8.o.r , , ; h s.U U * * 5.4.a z l < P.,Xh.h.h.g.% A }.",
"j.!.N.k.g.h.g.g.= X * 9 9 9 ; g g g < < = %.%.X.X.X.X.&.&.&.&.&.=.-.=.=.-.$.#.$.$.$.*.R s.U V * * ,.,.a z l < L.,Xh.h.h.3 = }.XX",
"g.!.T.l.g.g.g.g.- o * > 9 9 7 > 0 < < < ; $.$.$.$.$.$.$.-.;.;.;.-.;.;.*.$.$.$.$.$.$.$.I.U U * * * ,.d a z 7 7 L.,Xg.j./ %  .+X| ",
"g.!.U.j.g.g.f.g.= X * , 9 9 9 r 5 < , 9 * p p p p p p p p p X.+.%.X.p X.X.X.X.X.X.#.$.R U U * * * ,.a t C t 7 [.1Xg.f.) S .X!.b ",
") Q.F.j.f.f.g.g.A A n.m. . .i.D.T.D.D.E.L.Q.Q.Q.].Q.|.|.{.|.|.*X|.*X;X;X;X:X-X-X;X:X:X;X,X,X,X>X>X>X>X,X,X,X1X1X1Xf.g.K a..Xc b ",
"g.XXT.j.f.f.( f.{.*X,X,X1X>X>X,X>X>X1X1X,X1X,X>X,X>X>X>X>X>X;X;X>X:X*X;X-X*X-X{.&X&X&X&X&XQ.&XP.P.P.P.L.L.L.G.H.c.f.f.^ OXn.1 S ",
") +XQ.) ( ( f.( j.x.l.z.j.j.g.g.) ( ( ( ( ( ( ~ f.f.f.f.( f.( ( ( ( ( ( ( ( ( f.f.H f.f.f.f.f.f.f.f.f.( f.f.f.f.f.f.) '.F.S n m ",
"( !.F.~ / Z.( f.( ( ( ( ( ( ( ( ( ( ( ( ( ( ( ( ( ( P ( ( ( ( ( ( ( ( ( ( ( ( ( f.( f.f.P ( ( f.f.( ( f.f.( ( f.( ( | T.g.B h N ",
"P n.b M D.j./ ( ( ( ( ( ( ( ( ( ( ( ( ( ( ( ( ( ( ( / ( ( ( P ( ( ( ( ( ( ( ( ( f.( ( f.f.( ( ( f.( ( ( ( f.( ( ( f.( ( / B 3 b ",
"c c S qXF./ / / ( / ( / ( / ( / ( ( ( ( ( ( / ( ( ( ( ( ( ( ( ( / ( / ( ( ( ( ( P f.H f.H ( f.H ( ( ( ( ( ( ( ( ( ( ( f./ S 3 b ",
"= R .XZ.P f.f.P F b b M b b b b b b b x b b b b b M b b b b b b x b b v b b b b b b b b b b b b b N b b b b b b S ( ( ( / x = B ",
"} OXf.f.f.P P P &                 .                                 .                   .                       X P / ( ( n : n ",
"}.) n.P P P P Z.> X 3 3 3 3 3 3 3 3 3 3 3 3 c 1 3 3 3 3 1 3 3 3 1 3 3 3 3 3 3 3 3 3 3 3 3 3 3 3 3 3 3 2 3 3 2 [.J./ ( / ( m 1 m ",
"/ n.n.P F G n.P + + v v v v v b v v v v v v x x v v v v v v v v v v v v v v v v v v v M c v v v v v v v v v v :X{.( H ( P S c n ",
"/ ) { M Q F.) H X @ X.a 7 7 7 7 7 7 Z t a s X.X.X.X.#.#.X.7 c v v v v v v v 6.q.7.v ` ] b q 8 7 v v c v v v v :X&X( H / P B b n ",
"b A c S D.) H H + @ $.$.$.$.$.$.$.$.*.-.;.;.-.*.$.$.$.$.$.$.$.v v v v v v v q.q.o.M (.(.Z q q 9 v v R A v v c :X&XH H / H B 1 b ",
"& % S .Xj./ ^ ^ o @ $.$.$.$.$.$.$.-.;.;.;.;.;.;.-.*.$.$.$.$.$.3 v v v v v u q.9.s Z a.(.[ q q 9 V ^.^.1.[ c c :X*XH P P P n : b ",
"X S E.) H H H ^ X @ i i p i i i +.+.+.+.+.+.+.+.+.+.p p i i i 1 v v v v v 0.q.f ;.8.(.#Xu...q r Y ^.^.1.<.c v :X*X/ H H H b - n ",
"S D.) / L H H G X % M M Q /._ )._._._._._._._._._._._._ _ _ _ _ Q v v v M q.4X8.6X@. X#Xp.:.:.s Y 7X8Xi.[ A v ;X*XH H H H n - m ",
"}./ n.( H H H G X % M v Q _ /._._._._._._._._._._._._./._ _ _ /./.2 v v O.4X4X<.6X@.@X$X[ U :.s U wX8X8X<.T v ;X;XH H H H n 1 B ",
") Z.} ( H H H G X # v v 2 W ] ] ] ] ] ] ] ] ] ] ] ] ] ] W W W W 2 v v v r.9X7.6X7X@.$X$Xp.V >.s >.wXwX8X<.1.v -X;XH H H H n c n ",
"H }.Z.P H H H G X 3 ! ! ! ! v.v.b.b.b.b.b.b.b.b.b.b.b.v.! ^ v v M M v v 4X9XO.7X7X@.$X$Xp.v >.d I wXwXqXi.1.v -X;XH H H G n - b ",
"P .XZ./ G H G G X 3 ! ! ! d.b.b.b.b.b.b.b.b.b.b.b.b.b.v.! ! v v v v c 6.4Xw.6.7X7X@.$X$Xp.v >.>.d T.wXwX^.1.v *X*XH H H H x - b ",
"P !.T.( H H H G X v ! ! ! d.b.b.b.b.b.b.b.b.b.b.b.b.b.d.! ! v v v v c q.4X6.v 7X7X@.#X$Xp.v I :.s Y wXwX^.1.U *X;XG H G G b = b ",
"P !.D.P H G G F X M ! ! ! d.b.b.b.b.b.b.b.b.b.b.b.b.v.! ! ! 1 - 3 = - q.q.7.3 7X7X@.#X#Xu.= 0 :.d e wXqX^.<.T &X>XG G G G b - b ",
"L W.T.P G G G F o M ! ! ! ~ b.b.b.b.b.b.b.b.b.b.b.v.v.! ! ! * * * * 7.q.r 7.% 7X7X@.#X#Xu.* ; :...a wX^.~.~.T &X;XG G G G n n b ",
"L W.R.) G G G D o & Z Z y Z Y ' { ' ' ' ' ` ` ' ` ` y Z Z Z * * * * q.q.o.* - 7X7X@.#X$X[ * * :.>.s ~.^.^.^.@.{.>XG G G F n 1 n ",
"P .XT.L G G G m o 5 Z Z A Z Z ` ' Y ' ' ` ' ' ' ` ` Z Z Z 7 * * * > q.0.o.* * 7X7X@.#X$X[ * * :.>.9 A ^.^.^.[ Q.:XG F F F x % b ",
"J !.R.L G F D m o n S q q q e q ........:.:.>.>.w q q q q q q ; , q.q.f o.* * =.6X@.$X$Xu.- * w e 8 ; ^.^.^.1.[.:XD F F D 1 $ x ",
"L .XR.L F F D m X $ : q q q q q q ......:.:.:.w q q q q q q q e r o.q.o.* * - i +.i p.[ t * * , 8 9 > <.^.^.T !.:XD F F F x = x ",
"J !.T.J D D D b X % * 9 9 9 9 9 9 9 r 9 9 9 9 r 8 8 9 9 9 9 9 8 5 o.o.r * * * r s r [ u 7 * * ; 9 9 8 T y.y.y.].>XB B D B x - b ",
"J W.R.L D D D b # F.Z.Z.Z.Z.Z.Z.Z.Z.Z.Z.Z.F.F.F.F.F.F.F.F.F.F.F.D.W.E.K.K.K.K.K.E.K.].].K.J.Q.[.Q.!.].].|.|.|.,X,XD B D B - % c ",
"B R.W.J B D B n ` ,X1X,X1X1X1X,X1X>X1X1X:X1X,X,X:X1X,X1X:X1X:X1X:X1X:X:X>X:X:X,X,X:X,X>X>X>X>X:X,X:X:X>X:X:X:X>X{.B m B m - # - ",
"m T.R.S m B B B n F K D B B D D D K B B D B B B B B B B B B B B B B B B B B B B B m B N B m m B B B S m B B B B m B m m m c % c ",
"B | W.B m m m m m B m m m m m m m n m m m m n n m m m n m n n n m m n n m m n m n m n m m n n n n m n m m n m n m n m n m h = 1 ",
"B  .W.B m m m m m n n n m n n n n n n n n n n n n n n n n n n n n n n n n n n n n n n n n n n n n n n n n n n n n n n n b * $ 1 ",
"m { T.S n n n n n n n n n n n n n n n m n n n n n n n n n n n n M n n n n n n n n n b n b n n n b n n n n b n b b n n n n = $ 1 ",
"N S J B n n n n n n n b n n n n n n b n n n b n b n b n b n n n n b b n b n b n n b n b b n b b n b b n b b n b n b b b b - # 1 ",
"N Y { B x n b x - * = $ # % 3 3 1 3 : : : 3 - - = - = = = - : = - = = * * % % % 3 & o o & $ # = * * = = % = c b b b b x x % # * ",
"c A A V x 1 x $   . + + $ % % % % $ = $ & % * $ % % = $ $ $ $ # # + + o X . X . X X                           + - 1 x 1 1 % # $ ",
"1 A Y v 3 1 h   X # # # $ $ # $ $ $ $ $ $ $ # # $ # $ $ $ $ $ # # o o o o X X X                                 $ 1 3 1 3 $ $ % ",
"                                                                                                                                "
};
