/* XPM */
static char *result[] = {
/* columns rows colors chars-per-pixel */
"64 64 230 2 ",
"   c #090604",
".  c #02050B",
"X  c #160B02",
"o  c #1A0D03",
"O  c #130C09",
"+  c #1D1105",
"@  c #17120A",
"#  c #1C1209",
"$  c #020711",
"%  c #030915",
"&  c #040B1B",
"*  c #1B1719",
"=  c #220F02",
"-  c #231304",
";  c #2A1504",
":  c #2C1906",
">  c #22150B",
",  c #251908",
"<  c #2D1D0D",
"1  c #331703",
"2  c #351B06",
"3  c #3B1C04",
"4  c #331D0A",
"5  c #391E09",
"6  c #251912",
"7  c #301F11",
"8  c #342605",
"9  c #3D2106",
"0  c #35230B",
"q  c #3C220B",
"w  c #3A2809",
"e  c #2C241D",
"r  c #352316",
"t  c #3B2513",
"y  c #040E23",
"u  c #061027",
"i  c #05112C",
"p  c #151826",
"a  c #091637",
"s  c #161D35",
"d  c #231E26",
"f  c #2D262B",
"g  c #372A2A",
"h  c #26273A",
"j  c #332F33",
"k  c #421E04",
"l  c #432206",
"z  c #4A2405",
"x  c #4E2B07",
"c  c #43240B",
"v  c #49260B",
"b  c #46290A",
"n  c #4B2B0B",
"m  c #522706",
"M  c #532C06",
"N  c #5A2C05",
"B  c #532D0B",
"V  c #5A2E0C",
"C  c #4C350E",
"Z  c #55310C",
"A  c #5D320B",
"S  c #5A3C0F",
"D  c #472A12",
"F  c #562C10",
"G  c #483016",
"H  c #5B3311",
"J  c #583914",
"K  c #602E0D",
"L  c #61320B",
"P  c #653609",
"I  c #6A360B",
"U  c #6C3A0C",
"Y  c #723704",
"T  c #743905",
"R  c #7B3B05",
"E  c #723C0D",
"W  c #7D3D09",
"Q  c #623611",
"!  c #633B11",
"~  c #6C3B13",
"^  c #66391A",
"/  c #723D12",
"(  c #783F13",
")  c #473B3A",
"_  c #573E3C",
"`  c #623E21",
"'  c #5B4010",
"]  c #76420B",
"[  c #7D420C",
"{  c #644512",
"}  c #6C4513",
"|  c #744113",
" . c #7C4414",
".. c #784718",
"X. c #7A5516",
"o. c #4E4337",
"O. c #6F492E",
"+. c #7B4924",
"@. c #6F5239",
"#. c #0B1D45",
"$. c #091F51",
"%. c #16254A",
"&. c #0B2253",
"*. c #142756",
"=. c #262F51",
"-. c #132C67",
";. c #0D2D75",
":. c #132F70",
">. c #13337C",
",. c #183579",
"<. c #243868",
"1. c #333D67",
"2. c #253B75",
"3. c #3D4869",
"4. c #314472",
"5. c #56484D",
"6. c #504853",
"7. c #73574C",
"8. c #77654F",
"9. c #535562",
"0. c #545476",
"q. c #7E707D",
"w. c #813F06",
"e. c #813E0A",
"r. c #814007",
"t. c #84420B",
"y. c #8A460C",
"u. c #87480D",
"i. c #8C490E",
"p. c #9A4D0A",
"a. c #815308",
"s. c #834514",
"d. c #8A4613",
"f. c #844A15",
"g. c #8D4A14",
"h. c #844B18",
"j. c #8D4B19",
"k. c #914D14",
"l. c #914C19",
"z. c #845314",
"x. c #895515",
"c. c #8D511B",
"v. c #945115",
"b. c #985417",
"n. c #935B17",
"m. c #95531B",
"M. c #9A561A",
"N. c #955D1A",
"B. c #9E5A1C",
"V. c #A25C1E",
"C. c #8F6B0C",
"Z. c #97641A",
"A. c #A37E00",
"S. c #A9671E",
"D. c #A9761E",
"F. c #B37A1E",
"G. c #874C24",
"H. c #8A5427",
"J. c #9B5622",
"K. c #975925",
"L. c #9D5B23",
"P. c #8A5839",
"I. c #955F38",
"U. c #A25E23",
"Y. c #A25D2A",
"T. c #9C6C2F",
"R. c #9A6439",
"E. c #A36125",
"W. c #AB6323",
"Q. c #A6632B",
"!. c #A9652D",
"~. c #AC692D",
"^. c #B0792B",
"/. c #AA6532",
"(. c #A76937",
"). c #AE6B32",
"_. c #B16D33",
"`. c #B16C39",
"'. c #B37034",
"]. c #B3713B",
"[. c #946F43",
"{. c #A46D43",
"}. c #A97448",
"|. c #B97946",
" X c #B27B4F",
".X c #826866",
"XX c #C07C47",
"oX c #C17F4D",
"OX c #AF8700",
"+X c #BB8324",
"@X c #EAB51A",
"#X c #C38822",
"$X c #CC8F24",
"%X c #FFC600",
"&X c #B28352",
"*X c #A38669",
"=X c #C2814E",
"-X c #C58453",
";X c #D8A85B",
":X c #C5A16A",
">X c #0F3485",
",X c #123584",
"<X c #163A8A",
"1X c #1D418F",
"2X c #2B4887",
"3X c #344C87",
"4X c #254894",
"5X c #335091",
"6X c #365498",
"7X c #2C51A3",
"8X c #3659A6",
"9X c #3E63B5",
"0X c #53618B",
"qX c #4363A9",
"wX c #516DAF",
"eX c #4768B4",
"rX c #5977B9",
"tX c #6D7BA5",
"yX c #7D869F",
"uX c #7284B7",
"iX c #6A86C4",
"pX c #718BC8",
"aX c #A09A9F",
"sX c #CBB794",
"dX c #D8BEA9",
"fX c #DDC294",
"gX c #DAC6B5",
"hX c #E9DACE",
"jX c #F4EDE7",
"kX c #FFFFFF",
/* pixels */
"3 3 3 k 3 ; o X X o = 3 3 2 2 3 k k k k k 3 3 3 3 z N N N M B M M n x z x x Z x v n z x b b l 9 l b l l l l k k z l k k 3 3 1 k ",
"~.W.E.t.Y 3 X o X k ( M.J.M.J.Y.`.|.|.|.|.|.=X-X-X-X|.|.`.|.`.]._.!.!.!.!.B.L.M.k.l.M.m.m.m.m.B.Q.E.E.Q.E.Q.!.E.U.!.W.!.)._._.~.",
"W.M.y.w.R N X X k R m.Y.M.M.k.m.Y././.Y.`.`.`./.].].~.E.m.U.J.m.N.M.L.L.L.B.m.v.m.U.Y.Y.E.E.U.E.E.m.u.t.e.t.e.e.u.d.d.d.k.b.W.~.",
"d.d.t.w.dXw.- o R w.Y.l.e.e.d.d.e.l.l.J.l.j.l.l.l.l.g.j.l.l.l.l.l.j.l.l.g.j.g.j.d.l.d.l.d.d.d.d.d.d.d.d.d.t.y.y.y.y.p.p.p.p.p.p.",
"l.l.g.d.kXW N 1 m K I I I E I / K ~ ( e.s.e.e.d.j.j.l.l.l.l.l.G.l.G.7.P.7.G.l.l.l.l.l.l.l.l.l.l.l.l.l.l.l.l.l.l.l.l.l.k.k.l.k.l.",
"l.l.l.j.kXR 3 + = = ; 5 v F F K K ~ I K K ^ K m m v k d..Xq.0.2.>X,X,X,X,X2.G.l.l.l.l.l.l.l.l.l.l.l.l.l.l.l.l.l.l.l.l.l.l.l.l.l.",
"l.l.l.kXkXkX3 ; 1 F (.oXoXoXoX|.`.`.`.`.{.`.`./.Y.Q.U.pXiX1X>X>X>X>X>X>X>X2.l.l.l.l.l.l.l.l.l.l.l.l.l.l.l.l.l.l.l.l.l.l.l.l.l.l.",
"l.&XkXkXkXkXkXaX/ J.`.`.`.`.Y.U.J.J.b.l.J.l.l.l.l.l.pXrX<X>Xg t c r r >X>XO.l.l.l.l.l.l.l.l.l.l.l.l.l.l.l.l.l.l.l.l.l.l.l.l.l.l.",
"l.l.j.kXkXkX[.x Y J.`.d.d.l.d.d.d.j.d.d.d.d.j.d.d.pXqX,X>Xt c n K G =.>.>X+.l.l.l.l.l.l.l.l.l.l.l.l.l.l.l.l.l.l.l.l.l.l.l.l.l.l.",
"l.l.l.Y.kXe.T V R J./.d.l.l.l.l.j.l.l.l.l.l.l.l.iXqX<X>.t q B P M.J >.>X1.j.l.l.l.l.l.l.l.l.l.l.l.l.l.l.l.l.l.l.l.l.l.l.l.l.l.l.",
"l.l.l.J.kXt.R B R J./.l.l.l.l.l.l.l.l.j.l.l.G.iXeX<X<.q v B U Z.$X$X>X>X5.l.l.l.l.l.l.l.l.l.l.l.l.l.l.l.l.l.l.l.l.l.l.l.l.l.l.l.",
"l.l.l.Y.kXe.T l R l./.J.l.l.l.l.l.l.l.j.l.P.iXwX<Xh t b A | n.$X$X$X>X<.G.l.l.l.l.l.l.l.l.l.l.l.l.l.l.l.l.l.l.l.l.l.l.l.l.l.l.l.",
"l.l.l.Y.L.e.W - 9 z ~ Q ( s.( E E ( ( P 7.iXeX<Xg t v A f.n.Z.$X$X8.<X) ~ I Q ( e.l.e.l.l.l.l.l.l.l.l.l.l.l.l.l.l.l.l.l.l.l.l.l.",
"l.l.l.Q.L.d.Y X - 0 M V K ~ E (  .h.L.aXiX8X<Xt c v L z.N.N.#X$X$X9.2.P./.G.( s.e.l.j.l.l.l.l.l.l.l.l.l.l.l.l.jXl.l.l.l.l.l.l.l.",
"l.l.l.Y.L.t.P o x  .l././.`./.`.).`.tXiX6X,Xr q b P x.B.Z.D.$X$X0.>X) ~ ( s.d.l.J.l.l.l.l.l.l.l.l.l.l.l.l.l.l.kXl.l.l.l.l.l.l.l.",
"l.l.l.Y.Y.t.Y 9 g.Y.Y.J.Y.l.l.l.g.tXrX4X>.r q b P i.n.Z.F.$X$X4.>X>.D v F ~ ( s.l.l.l.l.l.l.l.l.l.l.l.l.l.l.jXkXkXl.l.l.l.l.l.l.",
"l.l.l././.d.T z W e./.J.l.l.l.l.iXwX4X%.4 q v P f.N.B.+X$X+X,X>X>X$X[.h q v Z ~ ( d.j.l.l.l.l.l.l.l.l.l.{.hXkXkXkXkXl.l.l.l.l.l.",
"l.l.l.Y.Y.e.R m R d./.Y.l.l.m.uXiX<X< < q D I ] n.N.#X$X[.<X>X2.$X$X$XfXeXr q b Q ^ s.d.j.l.l.l.l.l.l.l.l.l.jXkXkXl.l.l.l.l.l.l.",
"l.l.l.Y.Y.d.R N T j.`.L.l.l.P.pX8Xh < 7 b P E ] x.$X$X9.>X>X@.+X$X$X;XsXfXfX9X7 5 D Q ~ s.j.j.s.s.j.k.l.g.l.l.kXg.d.d.l.l.l.l.l.",
"l.l.l.Y.J.t.R N W l.`.Y.l.l.uXrX<X7 7 v P T T ] $X$X4.,X,XN.Z.,X>X^.tXwXsXfX%X&X9X4 5 k V ~ Q N v = - 1 x A Q kXd.t.d.j.l.l.l.l.",
"l.l.l.Y.m.e.w.m T J.`.Q.J.P.pX1X*.7 q L T T ] $X+X<X>X2.N.n.T.;.;.1X8X9XyX@X@X+X$X9X3X; , : : 1 o o o = q B A A A I / / l.l.l.l.",
"l.l.l.Y.J.e.R B W l.`.Y.l.tXqX>X7 7 b T ] D.$XT.>X>X5.N.z.X.z.j &.<.2X5X*XOXZ.D.+X+X8.9Xg D G O.R.(.|.oX(.(././.Q./././.J.l.l.l.",
"l.l.l./.J.w.R k T e.Y.J.G.rX<X%.< 7 0 { $X$X8.<X>.N.Z.z.! A Q K A 4 %.L L r S X.D.n.V.M.9X<.0 q ` P.{. X|.Q.l.l.J.j.l.l.j.l.l.l.",
"l.l.l.Q.l.w.Y o ; 3 v v 0X7X>X7 7 < t +X$X9.>X3.Z.B.n.! V ~  X XL 2 0 t L A 6 h X.x.Z.B.$X[.-.< 5 v ^ ( d.l.l.l.l.l.l.l.l.l.l.l.",
"l.l.l./.l.R R = ; = 3 m 4X<X:.4 < 0 G +X,.<X@.N.B.Z.X.n L &X X X}.3 2 , V L 2 s <.7.n.8X8.^.+X;.: 5 v F ~ j.l.l.l.l.l.l.l.l.l.l.",
"l.l.l./.d.w.R 1 N Y.Y.P.2.>X:.,.f < e >X>.n.Z.6.n.Z.~ v L &X X X..L 2 2 K L 2 < -.6X6.N A X.X.X.1.6 5 c F / j.l.l.l.l.l.l.l.l.l.",
"l.l.d.Y.e.w.w.z H.Y.l.oXG.O.6.2.,X>.>X<.n.B.>X>X,XN.$.: L L }.I.~ R.V A V L 2 - C 6.A R.q < b ' %.= : 5 k F  .j.l.l.l.l.l.l.l.l.",
"l.l.l.J.w.R R k ~ d.J.oX`.d.d.h.+._ ^ >.Z.n.>X>X,X>X$.> 3 V L ~  X XL A L A : p G A  X X2 : & * #.o = 4 5 D  .j.l.l.l.j.l.l.l.l.",
"d.d.( j.W R R ; N e.m.oXoXY.d.j.s.~ g ,XB.N.>X>X2.>Xo.4 2 2 V A  X X XV L L 2 6 %.L  X X4 @ & * #.O o 4 5 c ( d.d.g.g.g.j.k.g.l.",
"U.U.g.g.d.W Y o 3 T e.Y.oXoXm.j. .H f ,XZ.1.>X>.:.V P i 2 2 2 L .. X X}.L L 2 1 1 L  X..2 + 6 C $.O o 4 c B s.J.L.M.L.L.Y.L.U.Y.",
"p.y.w.e.W N = X o = m w.d.W R Y L l d ,XN.5.2.;.a K L a * 1 2 z L  X X X{.L K 2 2 L A l 2 , 0 S *.* o ; 1 3 P W W [ t.t.[ w.e.[ ",
"K P P N 3 - - o o o ; ; 3 1 V x l : p ,XN.B.Z.;.i B L V j 4 c A L  X X X X{.A 3 2 L L 2 2 , 0 Z -.a   X X o 1 3 l x A Q L L A A ",
"~.~._.!.!./.L.c.K.K.E.L.c.N.E.Y.H.J f >XZ.N.Z.;.i X n A L A L A K  X X}. X X{.+.V L K 2 1 , 0 b -.*.+ 0 c G h.Q.).W.'.'.'._._.).",
"~._._._._.).'.W.!.~._.'.)._.'./.H.J f >XB.N.N.;.&.q 3 4 2 M L M A +. X X X X X X XA M 2 . , 8 x -.*.+ - 2 9 L  .k.k.B.E.B.B.L.v.",
"x.~.~.~.E.U.b.k.b.n.b.M.B.M.M.m. .F f >.Z.n.Z.;.-.w , , - O 2 2 N L  X X X X X XP L 2 2 % 0 q ' <.#.X - 2 c Q [ g.k.g.i.i.k.B.B.",
"v.b.M.M.M.B.V.V.V.B.B.V.B.B.B.m. .H f >XZ.B.D.>X;.{ p p e e + 2 2 A  X X X X X{.K c 2 2 % < b ..<.%.+ ; 0 b ! h.N.B.B.M.M.M.B.M.",
"V.M.V.V.V.V.M.b.B.B.V.M.V.B.M.m. .A 0 >X@.>X>X>X4XZ.<.<.<.7.w 8 1 L L  X X X XV 5 3 2 O & u s  .1.s # : 5 v H j.M.b.V.b.V.M.V.V.",
"B.V.V.M.M.V.V.V.B.B.V.V.B.B.B.m...H q >X5.>X>X1X9X:X6X5X6X3Xo.+ c L L +. X{...v 2 4 2 $ & i h z.1.s o : 0 D ! h.V.V.V.V.V.V.V.M.",
"V.V.V.M.M.V.V.V.V.M.M.V.B.B.B.b...Z q >XZ.9.>.7X9XfXsXsXsX) ~ {.K L L L L K c 2 4   . % u e ! x.2.p # : 5 b ! c.M.V.M.V.V.V.V.M.",
"M.M.V.V.V.V.M.M.V.V.M.V.B.B.B.N.h.H q >XZ.$XT.9X9X9X9XfXX.G. X X XL L L c 2 2 2   $ & & i C X.n.>Xp # : q v ~ j.M.V.V.V.b.M.V.V.",
"V.V.V.V.p.V.V.b.B.M.M.n.M.M.M.M.j.! q ,XF.$X$XeX9X9X9X8XP.&X X X..K c 2 2 2 2 . $ , p a s } x.B.,Xp + : q v } c.M.V.B.B.V.V.M.V.",
"V.b.V.V.V.V.V.V.f.k.g.f. .s.] | U c : * 3.$X$X9X9XaXfX4X{ }.P 3 1 2 3 2 8 . . $ < w C ' X.z.n.,X>X+ + 4 q n / c.M.V.B.V.M.V.M.V.",
"S.V.V.V.V.V.b.V.c.L.c.m.L.K.K.Y.H.O.q 7 6 8X$XfXsXfXfXOXA 2 2 2 3 1 1 : . $ @ e b ' } z.n.H.>X*.@ # + 4 c G | m.b.b.N.b.b.b.b.b.",
"S.W.W.W.V.V.V.V.L.B.B.B.B.E.B.B.c.S q 1 > # 6X9XfXfX;XA., o , O . . . $ & 8 w C { z.x.n.>X:.@ o o + + 1 q n U g.p.v.k.k.v.k.v.k.",
"; 0 L s.d.M.M.M.M.B.M.N.(.kXN.v.f.L c 0 : > o d eXfX%Xz.8 # + & % % & & * C ' X.Z.Z.O.>.* + o + + = - 2 q b I d.k.i.g.! x x 8 : ",
"- + b v k m L P U I ]  .] kX}.g.g./ n q 2 : - o @ 4.yXa.C 8 p i y i i i a X.C.+XD.>X&.O # + + - , : = - ; 4 A E x n n b z : - o ",
"3 4 P M E k.k.k.v.v.k.B.kXkXkXkXv.h./ F q 5 : , - + * 5X} ' r a f { { #.o.D.+XR.>.@   X # + , : 4 0 q c n L f.v.v.v.b.p.v.| q 0 ",
"-X=X).~.V.M.M.M.v.M.v.M.M.kXB.M.b.b.c.| B v 5 2 : , + @ 4.2X! } z.D.D.F.+X+X;.s # X   X , : 8 q c b F H / h.M.B.V.Z.W.~._.XX-X-X",
"S.B.B.B.V.V.b.V.b.V.V.b.V.jXV.V.b.V.M.v. .A F q q 0 < - o p :.+.+X$X$X$X4.%.# # - X   o r q q b v H } f.v.b.V.V.M.V.V.M.V.V.V.V.",
"B.B.B.B.b.V.V.V.V.V.V.V.V.b.b.V.V.V.V.M.m. ./ B b q q : , + o %.2.$X^.-.# o # > > X X = D q b Z ~ ..m.M.b.V.B.B.M.V.V.M.V.M.V.V.",
"V.M.B.V.V.V.V.b.b.b.V.b.M.V.V.V.b.V.V.V.V.B.m...Q n c q 4 ; - o @ p # o o # # 6 7 - X ; G D H | j.M.B.V.V.V.M.V.V.V.V.V.V.V.V.M.",
"V.V.V.M.b.V.V.V.V.V.V.V.V.V.b.V.V.V.M.b.B.B.B.M.h.} H v q 0 4 - # # o # o - : t D -   : O.~ h.b.B.V.V.M.b.V.V.V.V.M.M.V.M.M.V.V.",
"M.V.V.M.V.V.M.V.b.V.V.V.V.V.V.b.V.V.b.V.b.V.V.V.M.m. .! n b q 4 : - > - > : 4 q q o X D {.j.L.B.B.B.V.V.M.V.V.b.V.V.V.V.V.V.V.b.",
"M.V.V.M.V.M.V.V.V.V.b.V.b.V.V.V.V.b.V.V.V.V.M.M.B.B.b.h.~ Z b q 4 4 : : 1 3 q 3 q o X H |.M.kXB.B.B.M.V.M.V.V.M.b.V.b.V.V.M.V.V.",
"V.V.V.V.V.V.b.M.V.V.V.b.V.V.V.b.V.V.b.V.V.V.M.V.B.M.M.k. .U A n l 5 5 2 2 ; ; 2 = X X +.oX}.kXhXB.B.B.V.V.V.V.V.V.V.V.b.V.b.V.b.",
"V.M.M.V.M.V.V.V.V.b.V.V.b.M.V.V.M.V.V.V.V.b.V.b.M.M.m.k.j.] B c : ; o X o = = = X X =  .kXkXkXkXdXV.V.M.V.M.M.V.V.M.V.M.V.V.V.V.",
"V.V.V.M.V.M.M.V.V.V.V.V.b.M.V.V.M.V.V.V.M.V.V.b.M.M.V.V.} A z l k c J 7 2 5 3 k v z 3 N |.kXkXhXb.V.b.V.V.V.V.M.V.b.V.b.V.b.V.V.",
"M.M.V.V.V.V.V.B.V.b.V.b.V.V.V.b.V.V.M.V.M.V.V.b.V.V.M.V.L.B.B.B.L.L.{.}.(. X|._.^.E.N L ~.gXkXkXV.V.V.V.b.M.V.V.V.V.V.M.V.V.b.V.",
"V.V.M.V.M.V.B.B.V.V.b.V.b.V.V.V.V.M.B.B.V.V.V.V.V.V.V.M.V.M.V.M.L.B.b.m.k.v.v.k._.i.M P ~.d.kXk.b.M.V.M.V.V.M.V.V.V.V.V.b.V.V.V.",
"V.b.V.V.M.V.B.B.M.V.V.V.V.V.V.b.V.M.V.V.V.M.M.V.V.M.V.M.V.V.B.B.B.m.A A A L Z B !.f.N P '.V.}.u.p.b.b.V.V.M.V.V.b.V.b.V.V.V.V.b.",
"V.B.V.M.B.B.B.V.B.V.B.B.V.V.M.V.N.V.B.B.B.V.B.M.M.M.V.M.V.M.b.v.v.p.k.i.u.[ ] Y x.s.M P ^.b.i.k.v.p.g.v.b.B.B.M.V.V.M.V.V.V.V.M.",
"i.d.v.v.v.b.v.v.k.v.k.k.k.k.i.y.p.i.u.i.v.i.i.t.y.y.u.y.t.u.t.y.r.R [ R R R R R R Y n n t.y.[ R [ r.r.r.t.u.t.u.y.u.i.u.y.k.v.p.",
"E E ] [ [ r.r.r.R r.W R R W w.w.u.t.t.r.r.r.R [ [ r.w.r.r.r.R R [ R R R R R R R P x z b b A r.R R T R ] [ R R R R R R R R w.R R ",
"E E E E E U E U U U P P P L P P U U U P A M x z b b z n b b b b b b b b b b b b b b b b b b l b b b b b x N L P U P I I U U U U "
};
