/* XPM */
static char *result[] = {
/* columns rows colors chars-per-pixel */
"64 64 223 2 ",
"   c #0A0501",
".  c #0B0501",
"X  c #120903",
"o  c #120A03",
"O  c #1A0D02",
"+  c #1D1105",
"@  c #1C130C",
"#  c #1F1711",
"$  c #210F02",
"%  c #231304",
"&  c #2A1504",
"*  c #2C1805",
"=  c #22150A",
"-  c #27180B",
";  c #2E1A0A",
":  c #331702",
">  c #391703",
",  c #331A05",
"<  c #3B1B04",
"1  c #351E09",
"2  c #3A1F09",
"3  c #271E16",
"4  c #3D2106",
"5  c #37200A",
"6  c #3B220B",
"7  c #2E2213",
"8  c #352111",
"9  c #3D2511",
"0  c #3F2816",
"q  c #382F28",
"w  c #421E04",
"e  c #442306",
"r  c #4A2405",
"t  c #4E2B07",
"y  c #462409",
"u  c #4A250A",
"i  c #462A09",
"p  c #4C2B0A",
"a  c #532705",
"s  c #542B06",
"d  c #5B2D05",
"f  c #502708",
"g  c #532C0B",
"h  c #592E0B",
"j  c #493009",
"k  c #4C320A",
"l  c #56310B",
"z  c #5E330C",
"x  c #5B3C0F",
"c  c #422913",
"v  c #472B16",
"b  c #562C10",
"n  c #4C3514",
"m  c #4A311D",
"M  c #5D3411",
"N  c #553A10",
"B  c #5A3D13",
"V  c #5B391B",
"C  c #612E08",
"Z  c #653104",
"A  c #6E3604",
"S  c #63340B",
"D  c #6A350C",
"F  c #66390D",
"G  c #6C3A0C",
"H  c #713705",
"J  c #753805",
"K  c #7B3B05",
"L  c #723C0D",
"P  c #7C3D09",
"I  c #633511",
"U  c #653A11",
"Y  c #6C3B13",
"T  c #6A3E1A",
"R  c #733D11",
"E  c #793F12",
"W  c #703F19",
"Q  c #413B35",
"!  c #603E24",
"~  c #5E4115",
"^  c #67430C",
"/  c #75430E",
"(  c #7D410C",
")  c #7A4C08",
"_  c #7F500E",
"`  c #6B4819",
"'  c #744113",
"]  c #7D4414",
"[  c #7A4419",
"{  c #7A4A18",
"}  c #76521B",
"|  c #7E531B",
" . c #584834",
".. c #684825",
"X. c #794A25",
"o. c #6A5432",
"O. c #705A36",
"+. c #7F602F",
"@. c #554F4A",
"#. c #813F06",
"$. c #813E09",
"%. c #814007",
"&. c #804F04",
"*. c #84430B",
"=. c #89460C",
"-. c #8B490E",
";. c #974C09",
":. c #9B4D0A",
">. c #865200",
",. c #925A0E",
"<. c #854513",
"1. c #8A4612",
"2. c #834A17",
"3. c #8D4A14",
"4. c #834A1C",
"5. c #8D4B19",
"6. c #914E14",
"7. c #914C19",
"8. c #825516",
"9. c #8D511B",
"0. c #945115",
"q. c #985417",
"w. c #935F13",
"e. c #95521C",
"r. c #9A561B",
"t. c #9F5A1C",
"y. c #A15C1E",
"u. c #9C610B",
"i. c #A66909",
"p. c #B56E04",
"a. c #BB7403",
"s. c #B77308",
"d. c #A8621C",
"f. c #B76D10",
"g. c #BC7D1D",
"h. c #864E22",
"j. c #8A5327",
"k. c #965521",
"l. c #9A5622",
"z. c #9D5A23",
"x. c #925829",
"c. c #9E5D2B",
"v. c #8C5C35",
"b. c #975E32",
"n. c #A25E23",
"m. c #A25D2A",
"M. c #956622",
"N. c #9A6338",
"B. c #9C7435",
"V. c #A36125",
"C. c #AA6324",
"Z. c #A6632B",
"A. c #A9652C",
"S. c #AC692D",
"D. c #A67226",
"F. c #B47D28",
"G. c #A56432",
"H. c #AA6532",
"J. c #AD6A34",
"K. c #A3693C",
"L. c #AC6C39",
"P. c #B16D32",
"I. c #B16C39",
"U. c #AB7032",
"Y. c #B47034",
"T. c #B3713B",
"R. c #B8733F",
"E. c #C47905",
"W. c #CB7D04",
"Q. c #A96F41",
"!. c #AE7242",
"~. c #B67542",
"^. c #B97641",
"/. c #BB7946",
"(. c #B47848",
"). c #BD7C49",
"_. c #897F72",
"`. c #C07C47",
"'. c #C17E4B",
"]. c #B78335",
"[. c #CF8003",
"{. c #CF810B",
"}. c #D0830A",
"|. c #CE8A1C",
" X c #D28916",
".X c #C98D2F",
"XX c #D48F23",
"oX c #D69229",
"OX c #CA8836",
"+X c #CE9231",
"@X c #D49633",
"#X c #D99A38",
"$X c #B48A59",
"%X c #998B74",
"&X c #A89577",
"*X c #BCA47E",
"=X c #C6824E",
"-X c #DA9F43",
";X c #C58352",
":X c #DCA247",
">X c #DDA958",
",X c #E1AB55",
"<X c #E3AE59",
"1X c #E3B873",
"2X c #9D9996",
"3X c #A29786",
"4X c #B8AB9B",
"5X c #ADA9A5",
"6X c #B9AFA1",
"7X c #CEAA85",
"8X c #E3BE88",
"9X c #C4BBAC",
"0X c #D8BCA3",
"qX c #DDC49F",
"wX c #E0C69C",
"eX c #D3C5B4",
"rX c #E7D1B7",
"tX c #D6CFC5",
"yX c #E8D9CA",
"uX c #E0DBD3",
"iX c #F1E6DB",
"pX c #F3EBE3",
"aX c #FAF6F2",
/* pixels */
"< < < w > & O O X O $ > > < , < w w > w > < < < < r d s d a g s s i i i s k s t p i i g i e e 4 e i 4 e w e e w r e w w < > > w ",
"S.C.V.=.H > O X O w [ r.t.e.l.A.I.`.'./.)./.=X;X;X;X)./.R.~.I.T.P.S.S.S.A.t.z.r.3.e.r.e.0.e.0.r.Z.Z.V.Z.V.Z.Z.V.n.A.V.Z.P.P.Y.S.",
"C.r.=.#.K Z o O w K e.m.r.e.3.e.m.H.H.m.I.I.I.H.T.~.A.V.e.n.l.e.r.r.z.z.z.t.e.0.e.t.n.m.V.V.V.V.Z.e.-.*.$.*.$.$.=.1.3.3.0.q.Z.S.",
"1.1.*.#.=.#.$ O K #.m.7.*.*.1.1.$.7.7.7.7.5.5.6.5.7.6.5.7.7.7.7.5.5.3.7.3.5.3.5.7.1.1.1.3.1.1.1.1.1.1.=.1.<.=.1.*.=.:.:.:.:.:.;.",
"7.7.1.1.1.#.a : a C D D D L D R I I E $.E $.$.1.5.1.7.7.7.7.7.7.7.7.7.7.7.7.7.7.7.7.7.7.7.7.7.7.7.7.7.5.7.7.1.$.5.7.7.7.6.7.6.7.",
"7.7.7.3.*.K < O O $ & > y b b b I D D D I I I d b w w 1.7.7.7.7.7.7.7.7.7.7.7.7.7.7.7.7.7.7.7.7.7.7.R f y u y y y u C 7.6.6.7.7.",
"7.7.7.l.3.K < $ : b G.;X;X;X'.R.I.I.I.I.Q.I.H.H.m.m.n.7.7.7.7.7.7.7.7.7.7.7.7.7.7.7.7.7.7.7.7.5.s u u p L.l.k.k.u u u u 5.7.7.7.",
"7.7.7.c.7.*.d , R m.I.I.I.P.m.m.l.m.7.7.l.7.7.7.7.7.q.7.7.7.7.7.7.7.7.7.7.7.7.7.7.7.7.7.7.5.b y u h.W /.L.'.;X~.L.W u w h 7.7.7.",
"7.7.7.m.7.*.J t H e.I.1.1.1.7.1.1.1.5.1.1.1.1.1.5.1.7.7.7.7.7.7.7.7.7.7.7.7.7.7.7.7.7.7.I u I k.l.k.Q.H.=X=X=X=X'.~.h.c y 7.7.7.",
"7.7.7.m.7.$.K l K l.H.7.7.7.7.7.7.6.7.7.7.7.7.7.7.7.7.7.7.7.7.7.7.7.7.7.7.7.7.7.7.7.R y u k.k.l.k.X.b.=X=X=X=X'.'.'.l.y 1 2.7.7.",
"7.7.7.l.7.*.J g K l.H.7.7.7.7.7.7.7.7.7.7.7.7.7.7.7.7.7.7.7.7.7.7.7.7.7.7.7.7.7.5.u u 5.k.l.l.l.W v.X.=X=X=X;X'.m.'.m.u & 4.7.7.",
"7.7.7.c.l.$.J e K 7.H.l.7.7.7.7.7.7.7.7.7.7.7.7.7.7.7.7.7.7.7.7.7.7.7.7.7.7.5.Y u [ k.l.k.k.f w u X.x.=X=X=XI.k.e.I.L.w & 7.7.7.",
"7.7.7.m.l.*.K % 4 i U F R <.E E L E E R E ' U S Z D S S C S S S G D D Y L S p u 9.z.c.k.W w u u w u W /.'.m.k.k.k.m.j.& 8 7.7.7.",
"7.7.7.Z.c.=.H O % 5 g h S D R R ] 2.c.'.;X;X;X'.I.L.H.H.I.H.I.L.J.L.I.H.b.u b l.G.c.j.u u u & & - , y u W l.k.l.k.h.& v m.7.7.7.",
"7.7.7.m.m.*.Z O t <.7.J.J.I.H.I.I.I.I.~./.H.l.l.l.7.k.k.l.l.7.7.7.l.l.[ u R G.G.x.W u u w - & $ = & & & ; & & > & & '.H.7.7.7.7.",
"7.7.7.m.m.*.A 4 3.c.m.l.l.7.7.7.7.7.7.7.7.7.7.7.7.7.7.7.7.7.7.7.7.7.S y x.H.G.h.u u w 1 - b.;XR.5.7.H.'.'.;X'.'.'.~.e.7.7.7.7.7.",
"7.7.7.H.Z.1.J u P $.H.l.7.7.7.7.7.7.7.7.7.7.7.7.7.7.7.7.7.7.7.7.7.s u =X=Xb.[ u u y % (.'.l.7.7.7.7.7.7.7.7.7.7.7.7.7.7.7.7.7.7.",
"7.7.7.m.m.$.K s P 1.H.m.7.7.7.7.7.7.7.7.7.7.7.7.7.7.7.7.7.7.7.7.p u ;X=X~.Y u y : N.'.e.7.7.7.7.7.7.7.7.7.7.7.7.7.7.7.7.7.7.7.7.",
"7.7.7.m.m.1.K d K 3.I.l.7.7.7.7.7.7.7.7.7.7.7.7.7.7.7.7.7.7.7.u u '.=X!.u y y ! /.l.5.7.7.5.3.<.4.5.7.5.7.5.7.3.3.1.6.7.7.7.7.7.",
"7.7.7.m.l.$.K d P 7.I.m.7.7.7.7.7.7.7.7.7.7.7.7.7.7.7.7.7.7.u u =X;XQ.u y u =Xc.5.5.5.1.<.<.Y l u $ $ > p l D <.<.*.1.5.7.7.7.7.",
"7.7.7.m.k.$.#.a J k.I.Z.7.7.7.7.7.7.7.7.7.7.7.7.7.7.7.7.7.b g =X'.Q.u u e '.7.7.<.D z l h g e 4 O O O = w b l S z D R R 7.7.7.7.",
"7.7.7.m.k.$.K s P 7.I.G.7.7.7.7.7.7.7.7.7.7.7.7.7.7.7.7.D p =X'.K.u u v ^.7.7.7.l.J.J.J.H.H.J.I./.~.).'.K.L.H.H.G.H.Z.H.l.7.7.7.",
"7.7.7.H.l.$.K w H $.m.e.1.7.1.1.5.3.3.1.5.1.1.1.1.1.1.R w L.~.[ y y X.L.7.7.7.7.7.7.7.7.7.7.k.l.I.'.;X'.~.Z.7.7.7.7.7.7.7.7.7.7.",
"7.7.7.H.7.K J $ & < p p g h Y R S z l S S P L [ R U U u G.^.X.u y N.m.5.7.7.7.7.7.7.7.7.7.7.7.7.7.7.l.7.7.7.7.7.7.7.7.7.7.7.7.7.",
"7.7.7.m.7.K K $ & & < g x.'.;X'.;X'.).~.L.H.I.I.I.L.w m.~.j.y y ..l.7.7.7.7.7.7.7.7.7.7.7.7.7.7.7.7.7.7.7.7.7.7.7.7.7.7.7.7.7.7.",
"7.7.7.H.1.#.K : C l.m.l.h.z.l.k.e.k.7.7.7.7.7.7.7.u k.!.x.b y m l.7.7.7.7.7.7.7.7.7.7.7.7.7.7.7.7.7.7.7.7.7.7.7.7.7.7.7.7.7.7.7.",
"7.7.7.m.$.K K a j.Z.7.(.k.1.7.7.7.7.7.7.7.7.7.7.b E H.v.M y 5 l.7.7.7.7.7.7.7.7.7.7.7.7.7.7.7.7.7.7.7.7.7.7.7.7.7.7.7.7.7.7.7.7.",
"7.7.1.l.$.K K w Y <.l.).L.1.3.7.7.7.7.7.7.7.7.E u m.x.b y & z.7.7.7.7.7.7.7.7.7.6.7.3.=.1.1.7.7.7.7.5.7.7.7.7.7.7.7.7.7.7.7.7.7.",
"6.1.] 5.P K K % d $.e.;X'.m.1.3.7.7.7.7.7.6.<.u l.b.b y & m.1.1.1.<.<.*.$.1.1.1.*.*.$.( P *.=.<.1.1.1.1.1.1.1.1.1.3.3.3.7.6.3.5.",
"n.n.1.3.<.P J O > K $.m.'.'.e.e.e.l.r.7.3.1.u k.c.b u : T.l.e.3.7.r.r.1.7.7.1.7.3.6.r.l.-.e.e.1.3.3.<.r.t.l.l.t.z.r.z.z.m.z.n.m.",
";.=.*.$.P d $ O O $ a K <.P K K b.4.P p.W.d Y x.b y y ..P J P H H H A A H K $.d a a a Z Z A H K P P K P P P P P P ( *.*.P $.$.*.",
"C S Z h < % % $ O O % & < , h ..4X` w.g.` u k.' u y & [ z g S h t h s $.K r : & O O O O O & & > < < < w < < < w e p l U S z z z ",
"A.A.P.A.A.A.c.7.k.z.Z.z.7.y.$X7X....F.V N k.e.u e & ;X;X;X).).`.L.S.S.S.A.k.j.e.: O $ & , K.).T.S.Z.V.V.V.M.A.S.P.Z.Y.Y.Y.T.S.U.",
"P.P.P.P.P.S.P.S.A.A.P.P.S.yXiX#Xo.~ [.N N k.y y e N.d.,.) r.t.q.0.-.=.=.=.=.t.M.a $ & w =X;XL.0.*.=.=.=.=.*.=.3.0.-.r.V.t.t.t.0.",
"0.S.S.S.Z.M.r.6.r.r.q.e./.aX-X X~ N [.N N f.r u % OX>.>.>.N x 6.6./ E ] <.Z r e , : : !.;X0.=.*.=.%.( =.-.0.3.;.3.;.3.-.-.6.t.t.",
"0.q.q.r.r.y.q.y.t.t.t.t.yX8X X<X` N W.^ N E.E.: * {.>.>.) N ~ ' G z h S h > > < y a > G.T.*.-.-.-.-.q.q.t.t.t.r.y.t.r.t.t.t.t.r.",
"y.r.y.y.y.q.y.q.t.t.t.U.eXXX,X<XB.N i.[.N N W.W.[.[.>.>.N N t.A.;X=X^.J.P.P.S.P.J.r.& G Y.-.6.-.,.q.t.t.t.t.t.t.t.t.t.t.t.t.t.t.",
"t.y.y.r.y.y.y.y.t.t.t.0X8X[.<X<X<XN N [.i.N N 8.W.s.>.B N ~ y.t.y.M.t.d.C.A.y.P.0.K O R P.*.0.0.q.t.t.y.t.t.y.t.t.t.y.t.t.t.t.t.",
"y.q.y.q.y.q.y.y.y.y.t.pX1X[.<X<X>XN N a.[.s.N N N N N N N B.t.t.y.y.t.t.t.y.y.P.0.A O F P.=.0.q.t.t.t.t.t.t.t.t.t.t.t.t.t.t.t.y.",
"y.y.y.y.y.y.r.r.y.y.M.iX#X[.[.[.[.N N ~ [.[.[.x N N N k k *Xt.w.r.r.r.t.t.t.e.S.d & O ' P.=.q.t.y.t.t.t.t.y.t.t.t.y.t.y.t.t.t.t.",
"y.q.y.y.y.y.q.y.t.r.r.0X#X[.,X@X@Xa.N N ^ [.[.[.[.) 4 4 ~ eX} _ ] R ' s p r : % O O X 5.Y.-.t.t.t.t.t.y.t.y.t.t.t.t.t.t.t.t.t.t.",
"y.y.y.y.y.y.y.y._ 0.x.yX X<X,X<X@XXX~ ~ ~ k a.p._ ) j ~ %XtX* = % $ O O % , & > r d $ R V.6.t.t.t.t.t.t.t.t.t.t.t.t.t.t.t.t.t.t.",
"d.d.y.y.y.y.q.y.9.z.N.yXW.<X<X<X:X@X[.i.~ N N N ~ k ~ O.uX .q 0 c 9 c c 9 9 y n T [ e R z.-.q.r.y.t.t.t.r.y.t.t.q.r.q.q.0.0.q.0.",
"y.d.d.C.y.y.y.y.t.t.Z.yX[.<X<X<X<X@X[.u.p.) ~ N n ~ o.&Xq o o @ - ; 1 8 9 9 9 9 , $ $ S V.7.q.t.y.r.t.q.q.0.0.0.;.0.0.0.0.0.0.0.",
"* < S <.=.r.y.r.t.t.z.iX X<X<X<X<X@X|.8.[.[.[.a.~ ~ 3X@ 3 o o o X X + = 1 1 5 9 1 % o 2 { 5.t.t.t.q.6.6.0.6.-.6.6.6.3.F t p 5 * ",
"+ + i u w a C C G ^ / eXXX,X<X<X<X@X+X_ a.[.[.E.0 &X@ o o   o o X X o o + & 5 0 6 % X 1 v U 9.t.r.0.Z a h Z / / k i i i i , + O ",
"5 , Z g L -.6.6.6.0.;.4XoX@X<X<X<X@X.X_ [.@X@X[.| 6Xo o o o o o X X X o X o - 9 9 * o ; 0 i Y r.t.r.0.q.0.q.q.0.0.0.q.0.0./ 4 5 ",
";X=XP.A.n.y.r.r.0.q.0.v.qX}.<X<X.X+X+X_ a.@X@X@X#X5Xo o o o o o X X X X X o + ; 9 , o , c 5 p { t.t.y.t.t.t.t.t.t.y.d.S.P.=X;X;X",
"V.t.t.t.t.t.t.t.t.t.0.V 3X}.@X<XD.].@X,.>.s.@X@X:XrX0 o o o o o o o o o o o o - 6 , O ; c 5 y U e.t.t.t.y.t.t.t.t.y.t.y.t.y.d.y.",
"t.t.t.t.t.t.t.y.t.t.2.5 @.@X X<XG.M.oXw.) $X .@X+X>X&X@ o o o o o o o o o o o = 8 : o % c 5 9 M 9.t.t.t.t.t.t.t.t.t.t.t.t.t.t.t.",
"t.y.t.t.t.y.t.t.t.t.] * o +. X@X].| +X|.^ M.9X@.# + o Q @   o o o o o o o o o @ 8 * X % v 6 6 l 2.t.t.t.t.t.t.t.t.t.y.t.t.y.t.t.",
"t.t.t.t.t.t.t.y.t.q.] * o O :X[..X` D. X) ~ o.5X_.2X5XeX*Xo o o o o o o o o X @ 8 + . % m 5 5 b 2.t.t.y.t.t.y.t.t.t.t.t.t.t.t.t.",
"t.t.t.t.t.t.t.t.t.r.9.4 O o 3 #X[.D.} ].|.) k k n %XwX1X#Xo o o X . o o X X X + 1 o . ; m 8 6 M 3.t.y.t.t.t.t.t.t.y.t.t.t.t.y.t.",
"t.t.t.t.t.y.t.t.t.z.0.U @ o o n oX}.M.| F.+Xw.k 9 4 ~ @Xo o o o X X o . X X X + & X X & m 2 y Y r.t.t.t.t.t.t.y.t.t.t.t.t.t.t.t.",
"y.t.t.y.t.t.t.t.t.t.r.{ 5 + o o ; M.,.D.| | D.&.^ ~ } o o   o o   X o o . . X O . .   ; m 2 k { r.t.t.t.t.t.t.t.t.t.y.t.t.t.t.t.",
"t.t.t.t.t.t.y.t.t.t.t.e.U , @ o X X 7 k ) / ^ D.| o o o o o                 X X .   . ; m 4 U 0.t.t.t.t.y.t.t.t.t.t.t.t.t.t.y.t.",
"y.t.t.t.t.t.t.y.t.t.t.t.9.M 5 = + X X X X X o o o o X o X           o . o O o O O O O % m s ( t.t.t.t.t.t.t.t.t.y.t.y.y.q.y.q.y.",
"t.t.t.t.t.t.t.t.y.t.t.t.t.0.U p 5 & @ + o O o o o o o X X X o o o # 3 0 0 m v 0 c 6 % & ` J =.0.t.t.t.t.t.t.t.t.t.t.y.q.y.y.y.y.",
"t.t.t.y.y.t.t.t.t.t.t.t.t.t.r.2.M p 6 1 * * & = = = % + @ = % * ; ; 5 5 5 5 5 , c 4 * t Z.1.*.3.q.t.t.t.t.t.t.t.t.y.q.y.y.y.q.y.",
"t.t.t.t.t.t.t.t.t.t.t.y.t.t.t.t.e.4.U l v i 6 6 5 , 1 1 1 1 5 6 6 5 = % % % % * M z i Z I.r.*.-.,.0.t.t.t.t.t.t.t.t.y.y.q.q.y.y.",
"t.t.t.t.t.t.t.y.r.y.t.y.t.t.t.t.r.y.q.0.2.' M l l p p v i y i e e e e e e i t d 2.] l F Y.r.-.-.0.6.-.0.q.t.t.t.y.t.t.y.y.t.y.t.",
"-.3.0.0.0.0.0.0.0.0.,.-.0.0.3.-.,.-.=.3.0.3.-.%.*.( ( L D Z h C d Z Z A J K K K K H i t *.*.#.K #.%.%.*.*.=.*.=.=.=.=.=.-.;.0.0.",
"/ L / ( *.%.*.%.K #.( K ( ( ( K =.%.*.%.( #.K P #.%.P %.%.*.K K P P K K K K K K Z t i i i z %.K K J K K K K K K K K K K K ( K K ",
"L L G L G G G L F H S S Z S Z F F / G S d l s i i i i i i i i i i i i i i i i i i i i i i i i i i i i i p l Z F G G F F H G H G "
};
