/* XPM */
static char *result[] = {
/* columns rows colors chars-per-pixel */
"64 64 218 2 ",
"   c #020101",
".  c #0A0603",
"X  c #0E0805",
"o  c #0B0A0B",
"O  c #140B02",
"+  c #1B0D02",
"@  c #110E0D",
"#  c #1E1105",
"$  c #1C120C",
"%  c #0F0F11",
"&  c #141313",
"*  c #1B1716",
"=  c #1C1B1B",
"-  c #200F02",
";  c #221205",
":  c #2B1504",
">  c #2C1907",
",  c #23150A",
"<  c #24180E",
"1  c #321703",
"2  c #341B04",
"3  c #3B1C04",
"4  c #351D09",
"5  c #391F09",
"6  c #271B15",
"7  c #351F15",
"8  c #3D2106",
"9  c #362008",
"0  c #3E230B",
"q  c #382317",
"w  c #242323",
"e  c #2B2526",
"r  c #2C2B2B",
"t  c #332D31",
"y  c #38363A",
"u  c #421E04",
"i  c #432206",
"p  c #4A2405",
"a  c #43250A",
"s  c #462909",
"d  c #4B2B0B",
"f  c #4C2809",
"g  c #542B06",
"h  c #5A2C04",
"j  c #552A09",
"k  c #532E0A",
"l  c #583006",
"z  c #56310C",
"x  c #5D320B",
"c  c #462B13",
"v  c #572C12",
"b  c #5C3411",
"n  c #622F03",
"m  c #62350B",
"M  c #6A3508",
"N  c #6C3A0C",
"B  c #743704",
"V  c #753805",
"C  c #7B3B05",
"Z  c #733D0C",
"A  c #7C3D09",
"S  c #7D2615",
"D  c #7A281A",
"F  c #663911",
"G  c #6B3C12",
"H  c #673A18",
"J  c #743D14",
"K  c #483429",
"L  c #593A2A",
"P  c #473C3D",
"I  c #6E3A2C",
"U  c #6C3730",
"Y  c #77410F",
"T  c #7C410D",
"R  c #754214",
"E  c #7C4414",
"W  c #734A2E",
"Q  c #7C5139",
"!  c #363540",
"~  c #3B3A46",
"^  c #110F6B",
"/  c #12116B",
"(  c #403F49",
")  c #444247",
"_  c #4B4A4A",
"`  c #574D45",
"'  c #494755",
"]  c #554956",
"[  c #504E5E",
"{  c #545353",
"}  c #5B5A5A",
"|  c #6D5346",
" . c #6A5C54",
".. c #795F52",
"X. c #646464",
"o. c #6E6E6E",
"O. c #737373",
"+. c #932701",
"@. c #823F06",
"#. c #813E0A",
"$. c #973C11",
"%. c #814007",
"&. c #84420B",
"*. c #89460C",
"=. c #8C490E",
"-. c #974C09",
";. c #9B4D0A",
":. c #844513",
">. c #8A4612",
",. c #844916",
"<. c #8D4A14",
"1. c #8C4D19",
"2. c #9D4210",
"3. c #914E14",
"4. c #914C19",
"5. c #8D511A",
"6. c #945116",
"7. c #985417",
"8. c #95531C",
"9. c #9A561A",
"0. c #9F5A1C",
"q. c #A4471B",
"w. c #B14A1E",
"e. c #A15C1E",
"r. c #A9611F",
"t. c #8A4027",
"y. c #934D26",
"u. c #965725",
"i. c #9A5622",
"p. c #9C5A23",
"a. c #84553A",
"s. c #B84F24",
"d. c #A15D23",
"f. c #A25D2A",
"g. c #B95824",
"h. c #996431",
"j. c #A46126",
"k. c #AB6322",
"l. c #A6632B",
"z. c #A9652C",
"x. c #AC692D",
"c. c #B36B2C",
"v. c #A76736",
"b. c #AA6532",
"n. c #AD6B33",
"m. c #B16D31",
"M. c #BC6439",
"N. c #B16C39",
"B. c #B47035",
"V. c #C6660A",
"C. c #C45322",
"Z. c #C95422",
"A. c #C35B2C",
"S. c #9B5442",
"D. c #9C6447",
"F. c #94705E",
"G. c #AA6B48",
"H. c #B96842",
"J. c #B46E4A",
"K. c #B97848",
"L. c #A96F51",
"P. c #AF705A",
"I. c #B17251",
"U. c #B97B58",
"Y. c #9A7866",
"T. c #BA7F61",
"R. c #CE754C",
"E. c #C17F4D",
"W. c #D27F58",
"Q. c #E58104",
"!. c #F38D02",
"~. c #FF9700",
"^. c #EF9E38",
"/. c #BA8569",
"(. c #BE8669",
"). c #A98B7A",
"_. c #B68E79",
"`. c #CE8747",
"'. c #C58452",
"]. c #C88555",
"[. c #D28F6F",
"{. c #C99477",
"}. c #1C68C8",
"|. c #1D74D9",
" X c #2575D3",
".X c #868585",
"XX c #8F8E8E",
"oX c #949393",
"OX c #9B9B9B",
"+X c #A38C88",
"@X c #A1988F",
"#X c #B1998E",
"$X c #A6A4A2",
"%X c #ADADAD",
"&X c #B6B1AC",
"*X c #B3B3B3",
"=X c #BBBBBB",
"-X c #D19E83",
";X c #C4A587",
":X c #D6A389",
">X c #D8A98F",
",X c #CAAE9D",
"<X c #D9A990",
"1X c #D7AE99",
"2X c #C5ABA6",
"3X c #C5B1AD",
"4X c #E2BCA7",
"5X c #DEC2A3",
"6X c #E6C2AF",
"7X c #E7C4B1",
"8X c #E9C6B3",
"9X c #E7CABA",
"0X c #C5C5C5",
"qX c #D0CCCC",
"wX c #D9D1CD",
"eX c #D7D4D2",
"rX c gray85",
"tX c #E3CDC2",
/* pixels */
"3 3 3 u 1 : + O + + ; 3 3 3 3 3 p 3 8 i u 3 3 3 3 { { { ` { { { { { { { { k k g s s s k s i i 8 i s 8 i 3 p i u p i u u 3 3 1 u ",
"x.z.d.*.B 3 + O O u #.9.i.i.i.f.B.K.K.K.K.K.'.'.{ { { { { { { { { { { { { { { { _ * .   8.6.6.p.l.j.j.z.z.l.z.j.d.l.l.k.m.m.m.c.",
"k.9.*.@.@.n + + u B 8.f.i.R 5 8.d.W . & _ { { { { { { { { { { { { { { { { { { { { y o     . p.j.l.8.=.&.#.#.#.#.*.<.>.<.3.7.l.x.",
">.>.#.@.#.C - + @.@.f.4.&.    .     . w { { { { { { { { { { { { { { { { { { { { { _ &     . s >.>.>.>.*.*.:.*.*.&.*.;.;.;.;.;.-.",
"4.4.>.>.>.A g 1 j n M M M Z     o   o y { { { { { { { { { { { { { { { { { { { { { ' w .       1.1.4.4.4.4.4.1.4.4.4.4.4.3.3.4.4.",
"4.4.4.4.*.C 3 + + ; : 4 a v u .     o ) { { { { { { { { { { { { { { { { { { { { { { r o     o   4.4.4.4.4.4.4.4.4.4.4.4.4.4.4.4.",
"4.4.4.i.>.A u - : v f.'.'.'.'.o .   % .X$X} { { { { { { { { { { { { { { { { { { { { r o o = w   . . R 4.4.4.4.4.4.4.4.4.4.4.4.4.",
"4.4.4.f.4.#.h 2 J f.N.N.N.N.f.f.    o.=X0X=X{ { { { { { { { { { { { { { { { { { { { = w $X%X%XO.        . 1.4.4.4.4.4.4.4.4.4.4.",
"4.4.4.f.4.&.C d B 8.M.>.>.>.1.>.,.& %X*X0X0X0X0X0XoX{ { { { { } OX=X$X{ { { X.o.O.X.t %X$X%X%X$X  o     j 4.4.4.4.4.4.4.4.4.4.4.",
"4.4.4.f.4.#.C k C i.b.>.4.4.4.4.. XX%X%X0X0X0X0X0X0X} { { { o.0X0X0X0XX.' o.*X0X0X=X%X%X%X%X%X%X      o ,.4.2.4.4.4.4.4.4.4.4.4.",
"4.4.4.i.4.&.V k C i.b.8.4.4.4.J t $X%X%X=X0X0X0X0X*X{ L.I.{ .X0X0X0X0X{ { ).0X0X=X%X%X%X%X%X%X%X  .   4.4.4.4.4.4.4.4.4.4.4.4.4.",
"4.4.4.p.i.&.B i B 4.b.i.4.4.4.  y .XOX%X*X*XO.XX.X} L.I.I.{ } =X0X0XO.{ } X.*X=X%X%X%X%X$X%X%X%X      4.4.4.4.4.4.4.4.4.4.4.4.4.",
"4.4.4.f.p.#.C : 8 s G F J :.    = _ } = r & P { { +.I.I.I.{ { { { { { I.I.L.w r       = OX%X%X%X      4.4.4.4.4.4.4.4.4.4.<.4.4.",
"4.4.4.b.f.:.B O ; 8 k z m .       o     . . % r G.+.I.I.L...{ { { { { I.I.I.I.        . . OX%Xo.o     4.4.4.4.4.4.4.4.4.4.4.4.4.",
"4.4.4.f.f.&.n + f &.4.b.I . o     o       .   I.I.+.+.I.I.I.{ { { _ I.I.I.I.I.I.o     .     .     o o 4.4.4.4.4.4.4.4.4.4.4.4.4.",
"4.4.4.f.j.*.M 8 1.f.f.d       v     o       < I.I.I.+.I.I.L.= = & % I.I.I.I.I.I.I.q o .               :.4.4.4.4.4.4.4.4.4.4.4.4.",
"4.4.4.b.f.:.B p C #.,     a :.4..           I.I.6     I.I.I.S.    I.I.I.I.K     I.I.I.  .     o       o 4.4.4.4.4.4.4.4.4.4.4.4.",
"4.4.4.f.f.>.C g A >.b.f.y.#.4.4.:.    o   L.I.I.G.    I.I.I.I.  L.I.I.I.[./.    I.I.P.D.        X       G 4.4.4.4.4.4.4.4.4.4.4.",
"4.4.4.f.p.>.A h V 1.N.p.4.4.y.G.G.        I.I.I.I.I.I.U.{.[.L.I.I.I.I.I.>X>X<X/./.I.I.I.        X     .   4.4.1.>.>.>.4.4.4.4.4.",
"4.4.4.f.f.&.C h A 4.N.f.4.4.G.I.I.a.  . L.I.I.M.s.7 < 6 U s.J.(.I.1X<XR.s.< < < y.Z.<XU.  o   L Q P.<     k N :.:.>.>.1.4.4.4.4.",
"4.4.4.f.4.#.A g V i.N.l.4.4.I.I.I.I.Q   T.{.:X< @X^ ^ ^ ^ @X8X6 /.8X6 tX@X^ ^ ^ ^ #X< >X|     I.I.I.o   i k k m m m Z J 4.4.4.4.",
"4.4.4.f.i.#.A h A 1.N.l.4.4.4.I.I.I.I.  U.| >X< &X|. X^ rX$X8X  8X8X. wX$XrX X^ ^ &X` >XK o o I.I.I.  K.v.v.b.b.b.b.b.b.i.4.4.4.",
"4.4.4.b.i.@.B u V T f.i.>.>.>.1.H.I.I.a.I.  <XU rX|.|.^ ^ rX8X. 8X8X  tXrX|.|.^ / rXW <X    I.I.I.A.  U.K.z.4.4.4.4.4.4.4.4.4.4.",
"4.4.4.z.8.C B - : 3 f f f m N Z g.H.J.H.I.  >XI rX|.|.|.|.rX8X  8X8X. 9XrX|.|.|.}.rXU <X    I.I.I.C.  4.<.4.4.4.4.4.4.4.4.4.4.4.",
"4.4.4.f.4.@.B - : : 3 j u.E.'.'.].Z.Z.Z.I.. -X>XrX|.|.|.|.rX8X. 8X8X. 8XrX|.|.|.|.rX<X1X. $ P.A.  .   4.4.4.4.4.4.4.4.4.4.4.4.4.",
"4.4.4.b.>.C C 1 n i.f.f.i.p.u.y.8.    q.I.  W >X>X>X7X7X8X8X  e 8X8Xe   8X8X8X8X<X<X<X|   I.Z.c     . E 4.4.4.4.4.4.4.4.4.4.4.4.",
"4.4.4.f.#.@.@.p y.l.y.E.8.1.4.4.4.      Z.I.  F.<X1X7X9X8X    8X8X8X8X    8X8X8X<X<XY.  I.J.Z.    4.4.4.4.4.4.4.4.4.4.4.4.4.4.4.",
"4.4.>.p.#.C C u G #.i.E.N.>.<.4.      o v C.I..         o  .8X8X8X8X8X8X ..         . {.I.w..     4.4.1.4.4.4.4.4.4.4.4.4.4.4.4.",
"4.>.E 1.Z A B : h #.8.].E.f.>.1.. :.1.. r Z.A.I.{._._.8X8X8X8X8X8X8X8X8X8X8X8X_._.<X>XM.Z.J .   o >.:.>.>.>.<.>.<.<.<.<.4.4.4.4.",
"d.e.<.>.*.C B + 3 V #.f.'.E.8.6.4.i.8.w ) ` Z.Z.A.-X>X>X8X8X8Xt.t.t.t.8X8X8X4X1X>XW.Z.Z.4.8.4.O   4.>.0.0.p.i.i.p.8.0.d.f.8.d.d.",
"=.*.@.#.A h - + O - h A &.A C A A A A y } V C C Z.Z.-X>X>X6X8X4X8X7X7X7X4X8X>X-X..6 X   n B M C C A V A A A A A A A :.T &.A #.A ",
"M m M k 3 : - - + + ; : 3 > g g z k g z l k l             * ;XP.`.^.S.S.S.%Xo             : : 3 3 3 3 u 3 3 3 u p f z F x m m x ",
"x.x.x.x.z.x.p.5.u.p.j.u.5.0.j.z.z.l.z.l.j.z.                eXV.!.+.S S 2X%X              v.K.B.n.j.j.j.j.j.j.x.m.z.B.B.B.B.n.n.",
"m.m.m.m.m.m.m.x.x.x.m.m.m.m.m.m.m.c.j.j.p.                  *X5XD D $.2XqX%X                n.1.*.&.*.*.*.&.=.=.5.5.9.r.e.0.e.6.",
"5.x.x.x.j.j.0.5.9.7.7.0.0.7.0.0.0.0.0.R                   %X%X2XD 2.~.2XqX%X                &.&.*.%.&.*.=.3.3.3.=.=.3.=.=.3.0.0.",
"5.7.9.9.9.9.0.0.0.0.0.0.0.0.0.0.0.0.9.                    %X*X3XV.~.#.2XeX%X                  =.=.=.6.9.0.0.0.0.0.0.0.7.0.9.0.9.",
"0.e.0.0.0.0.0.0.0.0.0.0.0.0.0.0.0.0.                      %X0X5X~.S S ,X%X%X                  x 6.7.0.0.0.0.0.0.0.0.0.0.0.0.0.0.",
"0.0.0.0.0.0.0.0.0.0.0.0.0.0.0.0.0.                      o %X%X1XS S S ;X%X*Xy                   6.0.0.0.0.0.0.0.0.0.0.0.0.0.0.0.",
"0.0.0.0.0.0.0.0.0.0.0.0.0.0.0.0.p.h.< .                 $X%X%X+XS S ~.#X%X%XOX                  0.0.0.0.0.0.0.0.0.0.0.0.0.0.0.0.",
"e.0.0.0.0.0.0.0.0.0.0.0.0.0.0.0.0.4XL.                  %X*X%X+XS ~.!.+X*X%X%X                e.0.0.0.0.0.0.0.0.0.0.0.0.0.0.0.0.",
"0.0.0.e.0.0.0.0.0.0.9.0.7.0.0.0.{.>XI.I.I.              %X%X%X+X!.$.S +X%X%X~             @ I.v.0.0.0.0.0.0.0.0.0.0.0.0.0.0.0.0.",
"0.0.0.e.0.0.0.0.E 5.,.,.E T R R [.[.{.I.I.L.          % { %X&X#XS S S ).%X! ! %         q I.I.M.0.0.0.0.0.0.0.0.0.0.0.0.0.0.0.0.",
"r.r.r.e.0.0.0.e.5.p.5.8.j.u.u.l.R.8X4XI.I.I.          ! ! ! ~ P S S ~.h.( ! ! !       Q I.T.I.M.g.0.0.0.0.0.0.0.0.7.7.7.7.7.7.7.",
"r.r.r.r.r.e.e.e.e.0.0.0.0.0.0.0.W.6XK.J.I.H.          ! ! ! ! y S ~.!.U ( ! ! !       I./.8X(.J.Z.0.7.7.7.6.6.3.6.6.6.3.6.6.3.6.",
": 8 x ,.,.7.7.7.9.0.9.9.9.9.7.7.M.[.I.I.H.Z.        ! ! ! y ' [ !.Q.D U [ [ ~ ! y     6 8X8X4XM.Z.7.7.3.6.6.3.3.3.=.,.Y s s 9 > ",
"# ; s f s g x x N N Y Y Y m 3.6.6.c.A.C.Z.Z.      o ! ! ' [ [ [ a.D D ] [ [ [ ! !       {.7XW.Z.7.7.x g l m Y Y d s s s s 2 # # ",
"9 9 m d Y =.6.3.=.6.3.6.6.3.3.6.7.9.9.9.1.#       ! ! ! ! ' [ [ [ ] ] [ [ [ [ ! !       J 2.w.,.7.0.6.6.6.6.7.6.6.6.6.6.=.R 0 9 ",
"'.'.n.z.e.0.7.0.7.9.7.9.9.7.7.7.9.0.9.,.N         ! ! ! ! ~             ' [ ( ! ! !       0 q s R 7.0.0.0.0.0.0.0.e.r.x.m.`.].'.",
"e.0.0.0.0.0.0.9.e.e.e.e.e.e.7.e.p.6.E d a         ! ! ! ! ~     .       [ ' ! ! ! !       0 a 0 s R 0.0.0.e.0.0.0.0.0.0.e.0.d.j.",
"0.0.0.0.0.0.0.e.e.9.7.e.7.e.e.e.0.E c 8 0       w ! ! ! !                 ' ! ! ! y       4 0 0 0 z ,.0.0.0.0.0.0.0.e.0.0.0.0.0.",
"0.0.e.0.0.0.0.0.e.e.e.e.7.e.7.e.1.d 0 0         ! ! ! ! y                 ~ ! ! ! ! o       a 0 0 0 F 0.0.0.e.0.e.0.0.0.0.0.0.e.",
"0.0.0.0.e.0.0.0.9.e.7.e.e.e.e.9.G 0 0 0         ! ! ! ! t                 ! ! y ! ! y       0 0 0 0 z 5.0.0.0.0.0.0.0.0.0.0.0.0.",
"0.e.0.0.0.0.0.0.0.0.0.0.e.7.e.6.b 0 0   O             . # + # # # # # # + .           .     . 8 0 0 s E p.0.0.0.0.0.0.0.0.0.0.0.",
"0.0.0.0.e.0.0.e.e.0.0.0.e.e.0.<.d 0   . 9 ; #           # # # # + # + # +             O   4   a 0 0 c R 0.0.0.0.0.0.0.e.0.e.0.0.",
"0.0.0.0.0.0.0.0.0.0.0.0.0.0.0.<.d a 4 0 > $ #           + # + + + + # + + O           O q 2 0 0 0 0 s R 0.0.0.0.0.e.0.0.0.0.0.0.",
"0.0.0.e.0.0.0.0.0.0.0.0.0.0.0.8.v 0 a 8 ; # ; + # # + # # O O O O X . X . . . .       + 6 4 8 0 0 c z 1.0.0.e.0.0.0.0.0.0.0.e.0.",
"0.0.0.r.0.0.0.0.0.0.0.0.0.0.0.0.H a 0 0 > , + , # # # ; O O O . O O $ O . O X X X X . O 9 4 5 0 0 0 b 9.0.e.0.0.0.0.e.7.e.7.e.e.",
"0.0.0.0.0.0.0.0.0.0.0.e.0.0.0.0.5.s 0 0 8 > ; $ # # # # # # # ; # ; < 6 < < < ; < # O + 0 2 2 0 0 d E 0.0.0.0.0.0.0.e.e.e.e.7.e.",
"0.0.0.0.0.0.0.0.e.0.0.0.0.0.0.e.0.R s a 0 0 5 > , ; , # # # ; # # # # ; # # # + < # + : c 9 4 3 s F 0.0.0.0.0.0.0.7.e.7.e.e.e.e.",
"0.0.0.0.0.0.0.0.0.0.0.0.0.0.0.0.0.0.J s a 0 0 0 0 9 4 > > > , ; ; ; O O O O O # 9 9 # : c 0 2 8 z <.9.0.0.0.0.e.0.e.e.e.7.e.7.e.",
"0.0.0.0.0.0.0.0.0.0.0.0.0.e.0.0.0.0.9.E b s a 9 0 0 0 0 0 0 0 8 8 2 8 3 2 2 : : 9 2 # : c 8 i m 6.3.=.6.0.0.9.0.0.0.0.0.e.0.0.0.",
"=.5.5.3.3.6.6.7.6.6.3.3.3.6.=.=.6.=.=.=.,.N k p i 3 4 4 2 2 2 2 2 2 1 : 2 2 : 2 2 : # # 8 f n C T %.%.%.%.*.%.*.*.*.*.*.=.-.3.6.",
"Y N T T T T T T C %.T C T T C T *.%.*.%.&.A V B n g g p i 8 2 2 2 2 2 2 2 2 3 3 2 : : > 9 l %.C C V T C T C C V C T C C C T C C ",
"B Y N Y M Y B Y M N M M n m m M N N N m x k k s s s s i 9 9 2 2 2 2 9 2 9 2 9 9 9 9 9 s s s s s s s s s d l m N N M N N M N N Z "
};
